<?xml version="1.0" encoding="utf-8"?>
<!DOCTYPE svg PUBLIC "-//W3C//DTD SVG 1.1//EN" "http://www.w3.org/Graphics/SVG/1.1/DTD/svg11.dtd">
<svg version="1.1" id="Layer_1" xmlns="http://www.w3.org/2000/svg" x="0px" y="0px" width="500px" height="500px" viewBox="-334.938 -1.229 500 500" enable-background="new -334.938 -1.229 500 500" xml:space="preserve">
<g>
	<path d="M154.388,174.501c-12.306-40.199-34.507-75.001-63.153-103.65C77.133,56.595,61.233,45.199,44.129,34.397c-39-23.4-87.452-36.153-137.105-34.202V0.047c-56.548,2.55-106.955,21.898-147.157,53.701c-29.102,23.399-54.152,53.704-70.649,88.202c-15.451,31.655-24.153,68.855-24.153,107.557c-0.151,35.854,8.546,71.854,22.5,102.607c27.603,60.748,78.755,107.7,142.657,130.804c22.654,8.256,47.106,13.196,73.203,14.551c0.302-0.446,1.201,0,1.5-0.302c28.653,1.799,59.255-2.999,85.204-11.25c57.152-18.151,105.308-56.102,136.655-105.003c16.8-27.603,28.053-55.953,34.351-88.954C168.185,253.409,165.632,209.903,154.388,174.501z M156.038,224.155h0.899c0,8.852,0.447,17.248,0.899,25.803l-8.401,0.597v-1.951c1.956-0.451,4.056-1.351,5.104-3.449c1.05-2.552,1.05-6.153,0.15-9l-11.699,0.303c0,1.799,0.15,3.899,1.5,5.249c1.053,1.049,2.398,1.353,3.898,1.2v1.95c-4.197-0.15-8.396,0.151-12.448,0.451l-0.15-1.95c1.802-0.451,3.751-0.752,4.65-2.703c0.302-1.199,0.598-2.55,0.302-4.049c-4.354,0.9-11.253-1.802-12.75,3.748c-0.305,3.752-0.154,7.951,3.745,9.75l3.6,1.051v1.802c-2.996,0.299-6.149-0.15-9.004,0.299c-0.743-8.999-0.296-18.749-1.195-27.896l1.647-0.151c0.151,1.502,0.151,2.848,1.349,3.75l1.802,0.601l23.101-0.901c1.05-0.15,1.949-1.199,2.101-2.099C155.583,225.804,154.684,224.008,156.038,224.155z M152.433,198.801c1.65,3.154,2.101,7.804,0.305,10.954l1.949,0.299l0.299,1.954c-2.698,0.598-5.55,1.352-8.247,1.951c-2.101-2.55,1.798-2.399,2.697-4.201c2.101-2.103,2.852-5.398,1.654-8.101c-0.598-1.199-1.654-2.55-3.15-2.7c-1.651,0-3.302,0.602-4.053,2.099c-2.849,6.151-1.95,16.502-11.253,17.402c-2.698,0.448-5.245-0.452-7.2-2.1c-3.147-2.999-4.497-6.9-4.05-11.25c0.15-1.802,0.902-3.451,1.5-4.952c-0.749,0-1.5-0.149-2.399-0.149l-0.446-2.099l9.753-1.799c0.147,0.599,0.147,1.198,0.296,1.799c-3.299,1.65-7.047,4.951-6.751,9.15c0.154,1.951,0.905,3.451,2.254,4.802c1.198,1.052,3.145,1.351,4.799,0.748c5.851-3.298,2.996-11.25,7.351-15.752c2.399-2.848,6.301-3.449,9.75-2.55C149.433,195.055,151.681,196.854,152.433,198.801z M134.734,149.154l-0.302-0.903c0.447-0.148,1.497-1.348,1.802-0.148L141.031,161c0.302,0.604,0.45,1.2,0.752,1.804l-1.5,0.751c-0.452-1.199-1.05-2.702-2.55-3.15h-2.251c-6.449,2.848-13.351,4.2-19.051,8.551c-1.65,1.65-1.799,4.35-1.201,6.448c0.902,3.15,3,6.602,6.301,7.504c2.553,0.601,4.799-0.148,6.901-0.902c4.802-2.251,10.2-3.299,14.552-6.752c1.5-1.348-1.198-4.498,1.801-4.498l4.05,10.502c-2.251,2.398-2.097-2.399-4.499-2.1l-2.701,0.304c-8.253,1.647-17.551,10.646-25.804,2.697c-3.597-4.648-6.149-10.498-4.496-16.649c2.097-4.95,7.502-6.602,11.998-8.252l9.904-3.898C134.882,152.604,135.187,150.802,134.734,149.154z M110.583,107.903l-0.748-1.2l1.349-1.052l8.697,13.799l-1.497,0.902c-0.601-0.902-1.499-2.399-2.703-2.55c-3.899,0.596-6.898,3.599-10.348,5.549l7.348,11.999c3-1.648,6.301-3.451,9.152-5.854c0.899-0.898,0.595-2.398,0.148-3.45l-0.749-1.196l1.5-0.902c2.402,4.801,5.7,9.15,8.549,13.801l-1.349,1.051c-0.601-1.051-1.5-2.399-2.852-2.698l-2.55,0.751l-18.746,11.85c-1.349,0.9-1.349,2.551-0.751,3.751l0.751,1.35l-1.349,0.899l-8.703-13.949c2.101-2.547,2.251,2.552,4.65,1.804c3.751-1.055,6.898-3.902,10.354-5.701c-2.402-4.054-4.952-8.251-7.653-12.15l-9.149,5.998c-1.201,0.902-0.751,2.551-0.305,3.602l0.752,1.199l-1.347,0.899l-8.854-13.949c2.101-2.701,2.101,1.647,3.899,1.647l2.401-0.299l19.199-11.998C111.033,110.901,111.335,109.103,110.583,107.903z M71.583,85.999c4.201-3.898,9.75-5.702,15.3-4.35c4.354,0.899,8.398,4.047,10.8,8.1c1.051,1.647,1.651,3.602,1.802,5.7l2.55-1.198l1.349,1.351l-7.049,7.197l-1.349-1.351c2.097-2.849,2.849-7.35,0.899-10.5c-1.802-3.001-4.802-4.801-8.1-4.35c-6.301,0.748-12.152,5.997-15.001,11.699c-1.503,2.85-1.503,7.051,0.748,9.45c2.101,2.699,5.103,4.35,8.401,3.602c1.949-0.299,3.597-1.2,5.248-2.103l1.349,1.2l-7.801,7.503c-2.097-1.055-0.601-2.55,0-3.901c-5.7-0.749-11.85-6.148-13.652-11.851C65.135,96.35,67.078,90.052,71.583,85.999z M63.031,56.898l2.098,1.35L57.328,87.35c-0.598,1.951,0.601,3.451,1.805,4.801l-0.902,1.2c-4.201-3.153-8.401-6.603-12.901-9.455c0-0.596,0.595-0.898,0.899-1.35c1.198,0.151,2.55,1.803,4.053,0.9c1.497-1.799,1.799-4.047,2.396-6.149c-2.55-2.399-5.549-4.498-8.549-6.601c-1.651,1.352-4.053,1.951-5.1,4.199c-1.05,2.247,4.05,3.298,1.047,4.952l-9.149-6.9l1.05-1.352c3.6,2.399,7.2-0.602,10.203-2.25L63.031,56.898z M15.032,57.797c0,3.154,2.399,6.001,5.248,7.2c1.647,0.451,3.751,0.3,5.103-0.899c1.346-1.2,1.947-3.003,1.494-4.801c-1.799-5.853-8.999-9.751-7.2-16.651c0.899-3.15,4.053-6.298,7.357-6.601c5.1-0.3,10.046,2.399,11.998,7.052l1.346-1.203l1.804,0.902l-3.901,7.648c-2.701-0.451-0.899-2.399-1.349-4.198c-0.148-2.251-0.749-4.202-2.55-5.702c-1.349-1.198-3-1.949-4.949-1.65c-1.5,0.152-2.556,1.65-3.002,3c-0.296,4.801,4.65,7.651,6.449,11.701c1.355,2.251,2.104,5.101,1.198,7.8c-0.899,3.151-4.047,6.449-7.496,6.752c-4.653,0.599-8.398-1.051-11.549-4.35c-1.053-1.2-1.804-2.552-2.251-4.05c-0.598,0.3-1.349,1.203-1.953,1.801L9.027,60.5l4.798-8.7C17.127,52.396,14.127,55.699,15.032,57.797z M-13.325,40.25c3.301,0,0.751,3.898,1.802,5.7c0.45,1.951,1.201,4.047,3.15,5.249c1.65,1.049,3.6,1.803,5.851,1.2c1.349-0.299,2.701-1.647,3.147-2.998c1.352-7.952-11.25-10.651-9.297-19.051c0.447-3,2.849-6.449,5.999-7.2c5.103-1.199,10.499,0.754,13.202,5.4l1.349-1.499l1.799,0.751l-3,8.1l-1.798-0.754c0.447-3.15-0.305-6.601-3.153-8.548c-1.497-0.9-3.298-1.649-5.103-1.051c-1.494,0.303-2.55,1.951-2.698,3.298c0,4.801,5.851,7.353,8.1,11.25c2.402,2.852,2.402,7.352,0.598,10.503c-1.947,3.449-5.396,4.949-9.15,4.798c-4.5-0.448-9.001-2.699-10.948-7.049c-0.6,0.297-1.201,1.352-1.65,1.948l-1.953-0.749L-13.325,40.25z M-52.325,38.895c4.2,0.751,6.603-3.75,8.851-6.6l14.102-19.203l2.094,0.604l4.502,30c0.148,1.8,1.952,2.849,3.449,3.603l-0.447,1.499c-5.103-1.499-10.351-2.847-15.601-3.899l0.305-1.501c1.198-0.152,3.748,0.748,4.348-1.052c0.45-2.399-0.298-4.35-0.45-6.601l-10.049-2.399c-1.349,1.652-3.298,3.451-3.298,6.002c0.151,2.399,4.801,1.198,2.846,3.897l-11.099-2.7L-52.325,38.895z M-92.376,35.296l0.899-2.25l0.899-22.501c-0.899-1.647-2.701-2.099-4.351-2.247l-0.151-1.652l11.25,0.3l8.7,22.797l9.602-22.048l11.404,0.3v1.647c-1.503,0-2.852,0-3.751,1.05l-0.899,2.103l-0.751,21.149c0,1.648,0.751,3.451,2.55,3.899l1.65,0.302l0.148,1.649c-5.549-0.149-10.794-0.749-16.344-0.448v-1.803c1.5-0.145,3.449-0.145,4.201-1.951c1.047-6.301,0.598-13.501,1.047-20.101c-3.597,7.499-6.896,15.75-10.499,23.702c-0.902-0.451-2.553,0.448-2.553-0.899l-8.999-24.004l-0.45,19.203c0,1.351,0.899,2.851,2.399,3.298l1.651,0.3v1.648l-11.401-0.448C-97.023,35.449-93.124,37.247-92.376,35.296z M-120.126,9.494l1.949,7.952l-1.65,0.3c-0.899-1.648-2.55-3.899-4.65-4.35c-3-0.599-5.7,0.3-8.398,0.899l-0.601,0.601l2.251,11.701c1.802-0.151,4.201-0.599,5.1-2.698l0.601-3.751l1.647-0.303c0.751,4.054,1.503,8.252,2.55,12.302c-0.6,0.152-1.198,0.303-1.801,0.303c-0.45-1.351-1.648-3.602-3.6-4.05c-1.349-0.3-2.698,0.148-4.05,0.448l2.251,10.503c0.148,0.75,1.05,1.798,2.101,1.798l2.849-0.3l0.305,1.648c-5.402,1.052-10.951,1.8-16.353,3.15l-0.299-1.501c1.198-0.45,3.15-0.748,3.751-2.399l-0.305-4.051l-4.198-20.098c-0.299-0.899-1.352-1.8-2.251-1.8l-2.399,0.3l-0.302-1.65C-137.079,13.097-128.678,11.146-120.126,9.494z M-185.078,34.246c2.698-7.049,10.052-11.251,17.101-12c6.452-0.451,12.448,2.551,15.598,8.251c2.251,3.899,2.852,9.6,0.899,13.798c-2.849,6.6-9.599,10.654-16.35,11.55c-6.603,0.602-12.602-2.099-15.903-7.952C-185.83,43.999-186.88,38.599-185.078,34.246z M-227.232,53.448l1.05,1.199c-1.05,0.899-2.399,2.251-1.798,3.602c3.751,2.998,8.552,4.498,12.75,6.752c-0.299-4.801-0.151-9.902-2.097-14.104c-0.751-1.044-2.251-0.747-3.15-0.295l-0.902,0.748l-0.899-1.352l8.398-6.301c1.798,1.052,0,2.101-0.302,3.3c0.302,6.449,0.902,13.048,1.65,19.352c2.098,2.548,3.6,5.85,6.6,7.65c1.949,0.899,3.6-3.3,4.653-0.152c-4.354,3.15-9.001,6.301-13.353,9.902l-1.047-1.351c1.047-0.9,2.249-1.8,2.399-3.15c-0.45-3.15-3.15-5.401-4.798-8.101l-17.551-7.949c-1.653-0.602-3.452,2.1-4.053-0.753C-235.332,59.749-231.282,56.598-227.232,53.448z M-246.283,67.7c2.251,1.798,4.354,4.049,6.6,5.998c-0.899,3.599-2.849-0.451-4.647-0.152c-3.452-0.747-6.002,1.2-7.952,3.902l0.148,0.901l17.853,16.95c0.899,0.448,2.251,0.601,3.15-0.147l1.798-1.503l1.201,1.052c-4.201,3.9-7.952,8.1-11.851,12.152c-0.299-0.301-0.751-0.6-1.198-1.055c1.05-1.195,2.698-2.547,1.949-4.349c-5.549-6.301-12.001-12.15-18-17.7c-1.801,0.147-3.298,1.803-4.348,3.299c-1.503,2.702,0,5.701,1.5,7.951l-1.352,1.503l-6.15-6.449C-260.834,82.548-253.483,75.2-246.283,67.7z M-272.98,96.35c0.447,0.151,0.899,0.6,1.346,0.899c-0.751,1.351-1.949,2.851-0.899,4.501l1.952,1.951l17.397,12.901c1.349,0.448,2.704-0.152,3.6-1.199c0.45-0.9,1.201-1.049,1.799-0.149l0.301,0.149l-9.75,13.049c-0.446-0.148-1.05-0.6-1.349-0.899c0.751-1.2,1.801-2.699,1.05-4.198l-2.1-2.251l-17.101-12.602c-0.751-0.599-2.101-0.599-2.852,0l-1.95,1.8l-1.201-0.899C-279.281,105.05-275.983,100.7-272.98,96.35z M-293.385,125.303c1.352-1.8,3.153-3.603,5.25-4.051l-1.352-1.502l1.05-1.8l7.502,4.199l-0.902,1.799c-3.301-1.2-7.049-0.6-9.448,2.099c-1.201,1.352-1.65,3.303-1.352,5.104c0.447,1.496,1.95,2.251,3.15,2.699c4.952-0.148,8.1-4.949,12.448-6.602c3.002-1.647,7.203-0.899,9.901,1.052c3.153,2.399,4.05,6.001,3.449,9.902c-0.899,4.198-4.349,9-8.848,9.899l1.798,1.951l-0.899,1.65c-2.997-1.352-5.848-3.301-8.7-5.104c0.751-2.998,4.05-0.147,6.15-0.898c2.251,0,4.05-0.901,5.7-2.552c1.349-1.498,2.101-3.299,1.802-5.397c-0.151-1.8-1.802-3.3-3.304-3.751c-6.6-1.05-9.898,6.752-16.199,6.901c-3.6,0.151-6.901-1.8-8.703-4.947C-296.684,132.503-295.332,128.301-293.385,125.303z M-306.135,152.749c2.698-3.446,8.25-3.15,11.102-0.296c1.799,2.249,2.55,5.249,1.799,8.099l16.353-4.801c1.05-0.751,1.648-2.251,3.15-1.052c-1.349,2.848-2.701,5.702-3.6,8.853c-5.851,1.799-12.303,1.799-17.551,5.4l-0.299,0.899l9.15,3.599c1.502,0.452,3.002-0.6,3.6-1.95l0.446-1.051l1.5,0.447c-1.949,5.104-4.198,10.051-5.996,15.303l-1.651-0.602c0.598-1.199,1.198-2.848,0.299-4.199l-2.55-1.65l-19.95-7.949c-1.651-0.451-3.154,0.749-3.754,2.101l-0.299,1.05l-1.648-0.596C-312.285,167.305-311.232,159.205-306.135,152.749z M-319.338,186.354l8.253,1.348l-0.45,1.954c-2.097,0.149-4.352,0.3-5.851,2.251c-1.648,2.399-2.399,5.397-2.251,8.548c3.603,1.052,7.499,1.652,11.25,2.551c0.751-1.499,0.601-3.45,0.148-5.101c-0.751-1.351-2.251-2.1-3.597-2.399l0.299-1.799c4.05,0.899,8.1,1.949,12.303,2.55l-0.302,1.799c-1.949,0.149-3.901,0-5.1,1.503c-0.899,1.199-1.05,2.552-1.5,3.898c3.902,0.755,7.801,2.399,11.7,1.503c2.55-2.251,2.849-5.7,2.55-8.848c-0.148-2.702-3.298-4.35-5.25-5.401l0.302-1.804l8.999,1.954c-1.801,9.148-4.352,18.001-5.697,27.3l-1.651-0.151c0.148-1.052,0.598-2.999-0.302-3.898l-1.65-1.052l-22.648-4.804c-1.352-0.148-2.55,1.052-3,2.099c-0.302,0.604-0.151,1.199-0.447,1.65c-0.45-0.302-1.502,0.146-1.502-0.753C-322.488,203.151-320.985,194.755-319.338,186.354z M-326.837,235.706h1.651c0,1.65-0.151,3.45,1.352,4.053c4.798-0.151,9.297-2.25,14.095-3.299c2.104-0.754,4.204-1.199,6.301-2.099c-6.301-2.552-11.999-6.604-18.897-7.951c-1.952,0.299-2.1,2.398-2.399,3.896l-1.651-0.147l0.749-11.998l1.5,0.147c0.154,1.8,1.053,3.754,2.852,4.802l26.851,13.501l-0.151,2.1l-29.7,9.597c-2.399,0.754-0.604,4.8-3.6,3.9L-326.837,235.706z M-326.233,274.861c0-5.404-0.601-10.501-1.053-15.752c0.302-0.157,1.053-0.157,1.651-0.157c0,1.503,0.45,3.153,1.952,3.905c8.248,0,16.501-0.598,24.6-1.497c0.899-0.452,1.651-1.201,1.799-2.251l0.151-2.251c0.45,0,1.053,0,1.65-0.148c0.151,5.55,0.45,10.945,1.05,16.347l-1.647,0.148c-0.154-1.497-0.305-3.296-1.953-3.899l-3.002-0.296l-21,1.646c-1.05,0.305-2.251,0.899-2.399,2.1l-0.151,2.399C-325.035,275.154-326.233,275.606-326.233,274.861z M-317.835,319.411c-0.447-3.449-1.198-6.603-2.098-9.906c5.849-7.647,11.401-15.3,17.397-22.947l-0.299-0.15l-16.048,3.751c-1.201,0.446-2.399,1.799-2.55,2.996l0.148,1.956l-1.651,0.299c-0.749-3.601-1.201-7.352-2.251-10.948c2.698-1.802,1.647,2.996,4.349,2.849l3.901-0.302c8.103-1.65,16.202-3.305,24.301-5.105l0.447,2.254l-19.648,26.546l18.151-4.046c1.497-0.45,2.849-1.953,2.849-3.449v-1.651l1.647-0.302c0.601,3.745,1.352,7.349,2.399,10.951c-0.601,0.299-1.198,0.299-1.799,0.299c-0.299-1.198-1.05-2.849-2.55-3.147h-2.997l-19.802,4.197c-1.648,1.503-2.698,3.151-2.251,5.402L-317.835,319.411z M-297.583,357.513c-1.201,0.598-1.651,1.798-1.352,2.999l0.601,2.098l-1.5,0.595l-6.754-14.995l1.349-0.598c0.751,0.899,1.503,2.849,3.002,3l2.399-0.305l15.752-7.2c1.648-1.054,3.449-2.55,3.748-4.497c0.302-4.2-1.346-7.951-4.801-10.501c-1.647-1.201-4.197-1.352-6.301-0.751c-5.549,2.7-11.696,4.351-16.651,8.25c-1.95,1.503,1.201,4.801-1.799,4.952l-4.653-10.351l1.502-0.598c0.601,1.05,1.648,2.248,2.849,2.396l2.701-0.147c8.552-2.55,21.154-13.8,28.351-1.349c2.399,4.649,5.553,11.85,1.198,16.648C-283.783,352.409-291.135,353.762-297.583,357.513z M-254.084,419.764l-10.797-11.998c0.449-0.452,0.899-0.601,1.198-1.053c1.201,0.899,2.399,2.401,3.902,1.798c1.799-1.645,2.55-3.896,3.6-5.845l-7.197-7.804c-2.103,0.899-4.653,1.198-6.002,3.301c-1.198,2.098,3.452,3.601,0.151,4.952c-2.399-2.999-4.798-5.851-7.647-8.549l1.349-1.201c3.301,3.302,7.649,0.305,11.102-0.601l22.201-7.798l1.651,1.651l-13.347,27.6c-0.751,1.65,0.299,3.15,1.198,4.499L-254.084,419.764z M-217.929,450.363c-4.201-3.449-8.401-7.047-12.752-10.351c0.302-0.302,0.601-0.749,1.05-1.05c1.201,0.449,2.852,1.65,4.502,0.748c4.949-4.798,8.7-10.348,13.048-15.45c-7.499,3.898-15.148,8.4-22.65,12.45l-1.802-1.352c2.553-8.398,4.952-16.803,7.505-25.197c-4.05,4.798-8.401,9.75-12.001,14.997c-0.751,1.051-0.751,2.704,0,3.905l1.198,1.497l-1.05,1.198c-2.849-2.399-5.698-4.949-8.7-7.05c0.751-3.449,3.298,1.349,5.402-0.449c5.848-5.849,10.351-12.448,15.598-18.602c0.151-1.952-0.899-3.301-2.1-4.496l0.899-1.201l8.7,7.047l-6.753,23.254l21.003-11.848c2.849,2.698,5.848,4.946,8.851,7.197l-0.899,1.198c-1.201-0.601-2.55-1.949-4.201-1.198l-2.55,2.402l-12.75,15.899c-0.601,0.899-0.749,2.252-0.148,3.15C-217.929,448.263-216.13,449.168-217.929,450.363z M-174.731,470.467l1.65,0.899l-0.751,1.349l-14.85-7.052l0.748-1.347c1.201,0.447,3.301,1.347,4.65,0c2.251-3.15,3.6-6.6,5.251-10.052l-12.75-6.298c-1.65,3.748-4.05,7.05-4.65,11.253c-0.148,2.098,4.351,1.949,2.251,4.047l-14.702-7.052l0.601-1.344c1.201,0.302,3.298,1.344,4.502,0c4.197-6.901,7.348-14.252,10.797-21.604c0.452-1.2-0.148-2.553-1.198-3.298l-1.5-0.899l0.601-1.352c4.801,2.398,9.75,4.801,14.699,7.049l-0.601,1.497c-1.198-0.446-3.147-1.497-4.349-0.302c-2.55,3.003-3.597,6.603-5.401,9.904l12.75,6.152c1.648-3.455,3.902-6.605,4.502-10.652c-0.148-1.352-1.798-2.251-2.852-2.849l0.601-1.349l14.705,7.046l-0.449,1.503c-1.352-0.449-3.449-1.503-4.653-0.153c-4.047,7.052-7.348,14.4-10.797,21.606C-176.379,468.512-175.778,469.716-174.731,470.467z M-133.775,461.166c-2.852,0.302-1.201-2.55-1.953-4.053c-1.198-4.194-5.851-5.1-9.451-5.697l-0.751,0.746l-3.15,10.354c1.5,0.751,3.6,1.05,5.399,0.446c1.201-0.748,1.952-2.098,2.55-3.295l1.65,0.446l-3.748,12.146l-1.648-0.595c0-1.955,0.299-4.053-1.201-5.245c-1.047-0.908-2.399-1.204-3.597-1.656c-0.902,3.748-3.305,7.354-2.553,11.552c1.802,2.547,4.955,3.15,8.103,3.301c2.849,0.148,4.949-2.553,6.298-4.801l1.802,0.443c-1.05,2.852-2.101,5.703-2.701,8.857l-26.697-8.254l0.299-1.503c1.201,0.154,3.002,0.899,4.201-0.15l1.352-2.245l6.301-21.299c0.299-1.503-0.899-2.55-1.95-3.153l-1.5-0.447l0.449-1.653c8.103,3.003,16.652,5.105,24.748,7.649L-133.775,461.166z M-95.375,489.967l-9.451-1.047c-3.151-5.105-4.801-11.103-9.6-15.456c-0.302,0-1.352-0.447-1.352,0.305c-0.151,3.744-1.352,7.498-0.447,11.099c0.899,1.05,2.248,1.198,3.597,1.503c0,0.443-0.148,0.899-0.148,1.497c-5.251-0.752-10.803-1.355-16.199-1.953v-1.496c1.346,0.147,3.15,0.147,4.197-1.054l0.751-1.952l2.701-22.198c0-1.354-1.05-2.553-2.251-2.849l-1.798-0.305l0.151-1.65c7.8,1.955,16.953,0.601,24,4.206c2.1,1.195,3.301,3.299,3.452,5.55c0.45,3.295-1.201,6.146-4.05,7.499c-1.349,0.598-2.701,1.05-4.201,1.05l8.401,14.099l2.55,1.65L-95.375,489.967z M-69.876,488.319c-3.298,1.799-7.949,2.098-11.398,0.748l-3.15-1.952c-0.453,0.305-0.453,1.503-0.751,2.402c-0.601,0.147-1.352,0.147-2.1,0.147l-0.299-10.046h1.949c0.899,3.449,3.449,7.65,7.351,8.097c2.097,0.305,4.204-0.147,5.697-1.494c1.352-1.354,1.654-3.153,1.201-4.955c-3.449-6.6-12.9-4.2-15.752-11.85c-0.751-2.997-0.6-6.6,1.5-8.999c3.002-3.15,7.197-3.751,11.555-3c1.195,0.447,2.55,0.749,3.597,1.802l0.601-1.802l1.949-0.15l0.604,8.7h-1.953c-0.748-2.849-3.153-6.002-6.15-6.6c-2.1-0.154-4.354-0.154-5.7,1.496c-0.899,1.054-1.201,2.551-0.751,3.748c2.402,4.503,7.804,4.204,11.549,6.754c3.15,1.65,5.398,4.798,5.25,8.253C-64.927,483.364-66.725,486.512-69.876,488.319z M-30.423,460.268c-0.597-1.953-2.097-4.053-4.053-4.952c-2.094-0.899-4.493-0.302-6.449,0.147c-1.047,1.054,0,2.402,0,3.601l4.354,21.452c0.598,1.05,1.648,1.949,2.994,1.65l1.956-0.302l0.446,1.651l-16.802,3.298l-0.296-1.647c1.497-0.305,3.298-0.601,4.05-2.251v-2.55l-4.499-22.654c-1.5-0.751-3.154,0-4.65,0.148c-1.805,0.452-3.452,2.254-3.751,4.056l-0.302,3.449l-2.097,0.601l-1.349-9.005l30.3-5.996l2.104,8.848L-30.423,460.268z M-25.773,440.761c-24.298,8.105-52.2,10.655-79.802,8.105c-20.553-2.101-39.903-7.351-58.054-14.998c-3.15-1.201-6.449-2.254-9.3-4.206c-19.053-8.247-35.853-20.249-51.001-34.199c-3.902-3.748-8.549-8.546-12.602-12.599c-6.898-8.105-13.048-16.501-18.746-25.506c-15.604-25.05-26.854-54.45-30.605-86.55c-8.25-77.404,25.653-141.907,78.906-182.858c45.298-36,112.653-51.302,174.605-34.803c38.551,10.055,71.854,31.204,97.507,58.953c7.647,8.252,13.948,16.2,20.251,25.651c23.849,36.153,37.199,83.554,31.2,132.604c-4.65,39.446-19.501,72.152-41.101,101.255c-9.602,12.3-19.651,22.653-31.499,32.102l-0.45,0.752C22.827,420.812,0.324,432.963-25.773,440.761z M18.777,466.115l-0.899-1.352c1.053-0.752,2.698-1.349,2.852-2.846l-1.056-3.153l-9.599-17.85c-0.749-1.35-2.399-0.598-3.299-0.302l-1.502,0.751l-0.746-1.503c2.997-1.952,5.849-4.801,8.25-7.502l13.35,24.754c0.746,1.503,2.55,1.799,3.748,1.198l1.5-0.751l0.598,1.349L18.777,466.115z M57.032,439.565c-0.601,4.05-4.053,7.647-7.65,9.15c-2.704,1.197-6.753,1.65-9.451-0.299c-1.798-1.35-2.701-3.302-2.701-5.402c-0.151-2.398,0.902-4.354,1.949-6.298c-3.899,0.148-7.65-1.05-9.599-4.652c-1.798-2.847-1.047-7.047,0.902-9.603c3.301-4.198,9.898-7.047,14.4-2.846c1.201,1.349,1.946,2.999,1.497,4.952c-0.148,1.502-0.598,2.846-1.349,4.05c3.902-0.151,7.803,0.751,10.203,4.052C56.582,434.614,57.482,437.016,57.032,439.565z M79.535,422.764c-0.902,3.748-4.502,7.2-8.401,7.649c-8.398,0.302-15.152-7.954-18.151-14.85c-1.65-3.452-1.497-8.398,0.899-11.549c1.805-2.553,4.204-4.354,7.2-4.65c1.352,0,2.707,0.601,3.304,1.952c0.447,0.902,0.148,1.95-0.45,2.701c-3,3.452-6.75-3.6-8.851,1.5c-0.151,4.2,3.15,7.348,5.549,10.498c0.447-2.245,1.5-4.345,3.6-5.697c2.701-2.104,6.753-2.104,9.448-0.446C78.331,412.715,80.579,417.661,79.535,422.764z M99.032,403.411c-1.35,3.601-4.952,7.2-8.999,7.65c-1.204-0.154-2.707-0.601-3.153-2.098c-0.305-1.05,0.15-2.251,1.05-3.003c2.852-2.097,7.352,2.852,8.854-2.097c0.749-2.849-1.502-5.104-3.455-7.2c-1.798-1.5-3.748-3.299-6.298-2.997c-0.902,0.296-1.802,1.047-2.097,2.095c-0.302,1.65,1.801,4.203-0.899,4.798c-3.305-0.899-0.45-4.496-1.053-7.046c0-3.302-1.651-6.302-4.65-7.949c-1.349-0.601-3.301-0.751-4.502,0.299c-1.198,0.899-1.198,2.704-0.899,4.053c0.305,0.899,1.056,1.949,2.1,2.248c1.198,0.302,1.952-0.598,2.254-1.65c0-0.302,0.148-0.449,0.447-0.598c0.746,0.296,1.349,1.047,1.497,1.799c0.148,1.503,0,2.999-1.198,4.047c-1.05,1.201-2.849,1.503-4.352,0.757c-2.402-1.352-3.301-4.053-3-6.603c0.45-3.904,2.701-7.655,6.301-9.301c2.396-1.053,5.55-0.597,7.2,1.646c2.553,2.852,1.201,7.356,0.45,10.504c1.798-2.849,4.948-4.949,8.549-4.499c2.398,0.302,4.352,2.101,5.703,4.053C100.83,395.463,100.531,400.113,99.032,403.411z M135.032,353.161c-1.05,1.497-2.55,2.849-4.05,3.6l1.353,1.35l-0.899,1.804l-7.804-3.301c-0.147-3.302,2.852-0.752,4.499-1.805c2.849-0.302,5.553-2.55,6.301-5.248c0.302-1.349,0.151-2.999-0.901-4.2c-1.051-1.198-2.701-1.497-4.352-1.05c-5.697,2.996-9.898,10.8-17.548,8.699c-3.302-0.898-6.452-4.206-6.754-7.649c-0.446-4.496,0.902-8.398,4.053-11.4c1.05-1.054,2.248-1.799,3.598-2.252l-1.953-1.798l0.899-1.956l9.002,4.354l-0.902,1.651c-3.6-0.601-7.499-0.45-10.046,2.398c-1.198,1.651-2.251,3.452-1.802,5.697c0.151,1.654,1.35,2.849,2.849,3.601c6.901,1.955,10.049-7.798,16.35-8.25c3.899-0.447,7.502,1.349,9.449,4.646C138.183,345.662,137.133,350.158,135.032,353.161z M143.434,332.312l-8.7-2.251l0.598-2.101c3,0.604,6.15-0.15,7.798-2.999c0.305-1.497,1.955-3.296,0.752-4.798l-23.852-7.05c-1.497-0.15-2.548,1.5-2.994,2.701l-0.452,1.201c-0.45-0.302-1.198-0.302-1.5-0.758l4.952-16.045l1.496,0.449c-0.15,1.195-1.05,3.147,0,4.349l2.255,1.35l22.496,6.753c1.353-1.949,2.704-4.65,1.654-7.2c-0.902-1.955-2.85-3.147-4.5-4.203l0.447-1.802l8.696,2.854L143.434,332.312z M154.235,292.409l-9.002-0.601l0.15-2.098c2.252,0,4.354-0.446,5.854-2.254c1.647-1.645,1.647-3.893,1.949-6.144l-0.899-0.752l-24.153-2.7c-1.2-0.148-2.097,0.899-2.55,1.801l-0.446,2.399l-1.65-0.153c0.898-5.55,1.496-11.247,2.097-16.951l1.651,0.302c-0.154,1.802-0.45,4.047,1.496,4.805c8.257,1.497,16.651,2.396,24.905,2.993c1.198-1.946,1.65-5.244,0.299-7.348c-1.198-1.802-3.299-2.55-5.101-3.299l0.151-1.955l8.999,1.349L154.235,292.409z"/>
	<polygon points="-32.973,21.647 -39.874,31.099 -31.624,33.047 	"/>
	<path d="M-168.88,52.396c3.452,1.2,7.049,0,9.599-2.698c4.05-5.553,0.751-12.902-1.949-18.151c-1.5-2.399-3.902-5.252-6.75-6c-3.301-0.749-6.452,0.303-8.851,2.55c-1.801,2.099-2.248,4.801-1.949,7.5C-177.73,42.198-175.331,49.098-168.88,52.396z"/>
	<path d="M50.882,269.457c-1.053-16.498-5.549-31.497-6.753-47.849c-0.148-2.551-1.198-6.45,0.899-8.104c3.902-0.146,8.099-1.047,10.8-3.15c3.453-3.449,5.248-8.247,6.452-13.05c0.6-1.802,2.402-2.851,2.849-4.802c-1.802-1.199-4.053-1.199-5.852-2.55c-0.147-2.999-0.147-5.552-1.349-8.097c-1.198-3.602-4.201-5.701-8.103-6.152c-5.7-0.451-9.599-3.449-15.149-4.047c-8.253-0.902-11.853,6.896-15.749,12.302l-1.053,0.448c-0.751-0.148-0.751-1.052-0.899-1.5l0.446-13.8c0.151-10.503,0-20.701-0.597-31.353l-0.45-1.199H1.676v-0.147c-9.152-0.152-18.752-0.152-27.901-0.301l-0.604-0.604c1.053-3.15,1.352-7.5,0.447-10.799c-1.946-6.6-6.298-12.602-10.945-16.95c-5.398-4.803-11.552-10.65-16.799-15.9c-1.503-1.352-2.251-2.999-3.751-4.35c-3.751-4.502-7.804-7.353-10.951-12.451c-2.698-4.198-3-10.501-7.049-13.652c-1.949-1.8-4.204-1.951-7.052-2.099c-3.748-0.601-7.948-0.451-10.948,1.651c-3.452,1.199-1.952,5.85-4.798,7.5c-3.6,0.748-5.704,3.449-8.552,5.549c-4.949,5.4-9.451,10.498-11.85,17.851c-2.55,6.149,1.798,11.551,5.7,15.149c1.651,2.85,6.15,3.9,7.502,7.2l-0.302,0.15c-3.902-0.899-8.703-0.751-12.75,0.148c-1.651-0.451-3.298-0.899-4.952-1.048c-3.298,0.148-6.15,1.2-8.1,3.299c-2.55,2.699-2.852,7.049-2.251,10.647c0.899,3.902,5.25,4.351,8.1,6.304c5.848,1.499,10.351-1.651,15.299-2.251c5.402,2.848,11.102,2.251,16.651,0.899c3.6,1.5,8.1,1.199,11.851,0.152l7.505,1.348c3.597-0.148,6.896-0.298,9.75-1.8l5.55,1.352c2.849,0.448,5.401,1.052,7.951-0.451l6.301,1.351c1.799-0.749,3.748-1.2,5.396-2.251c1.654-1.502,2.704,1.051,3.751,1.8c0.302,1.052,1.804,1.052,1.647,2.254c-1.949,0-4.046-0.149-5.697,0.148c-6.901-0.448-13.948,0-20.701-0.298l-1.05,0.298c-21.453-0.298-43.05-0.448-65.254-0.6c-17.403-0.604-33.602-0.452-50.854-0.9c-2.399,0-4.5,0.149-6.301,1.352c0,8.7,0,17.999,0,26.398c0,4.05,0,10.799,0,15.752c0,0.448-0.299,1.051-0.899,1.051c-2.101-2.099-3.6-4.501-6.15-6.151c-3.449-3-8.549-1.951-12.9-1.2c-5.401,0.603-10.649-0.297-15.001-0.898v-0.152l-2.698,0.303c-2.399,0.899-4.65,2.998-4.798,6.001c1.5,11.55,5.097,23.4,2.55,35.55c0,1.352-0.45,3.15,1.349,2.999c3.449,0,5.701-2.548,8.703-3.15c1.05,0.151,1.198,1.052,1.346,2.099c-0.447,6.304,0,13.198-0.751,19.502c0.151,9.301-1.349,19.203-0.751,28.953c0.302,7.046,0,13.947,0.751,20.701c2.399,13.498,5.103,29.25,18.902,34.35c0.751,1.353-0.299,2.707-0.899,3.748c-2.399,11.404,1.349,21.604,4.348,31.499l7.351,16.353c12.599,22.352,31.351,44.857,57.303,52.199c4.949,1.802,10.351,2.101,15.598,2.554l3.902,3.301c9.599,8.097,26.546,8.097,38.4,3.299c3.298-1.5,5.251-4.65,8.105-6.6c19.198-2.399,36.447-10.652,49.945-21.604c23.852-19.501,30.605-51.152,41.104-79.956c0.899-2.092,3.449-2.092,5.549-2.396c3.597-0.902,6.301-3.6,8.851-6.304C53.127,302.308,52.382,284.31,50.882,269.457z M-39.425,128.449c-1.648-1.348-1.5,1.199-2.547,1.803c-0.902,0.748-2.104,1.497-3.603,1.497c-2.402,0-4.647-2.252-7.049-0.749c-2.701,0.899-5.55,0.749-8.396,0.151c-2.103,0-3.603-2.851-5.555-0.755c-4.497,2.399-10.948,1.203-14.998-1.196c-2.399,1.497-5.848,2.699-9.001,2.101c-2.251-0.301-3.298-1.503-5.698-1.503c-4.499,1.503-10.351,1.199-14.554-0.901c-4.798,2.252-12.3,4.503-16.799,0.453c-1.949-1.803-3.597-3.902-3-7.053c0.45-1.803,1.349-3.45,3-4.35c2.704-1.803,6.901-1.055,9.753,0c2.098-1.199,5.248-2.099,8.103-1.351c2.399,0.6,4.349,1.502,6.449,2.25c1.799-0.603,3.15-1.802,5.1-2.25c-1.047-2.1-3.449-3.45-4.949-5.25c-3.603-4.053-8.851-6.753-12.152-11.701c-3.6-4.802,0.151-10.951,2.698-14.701c3.754-3.749,6.603-9.599,11.854-11.701c1.949-3.297,5.25-1.649,7.499-4.35c-0.299-2.1-1.349-5.101,0.902-6.301c2.101-2.251,5.1,0,7.952-0.604c2.997-0.148,5.549,0.751,7.348,2.551c3.597,2.55,2.846,7.648,4.801,11.102l0.302,1.351c9.6,11.102,20.849,22.8,31.8,33.3c6.147,5.252,9.75,12.449,10.652,21.152c0.151,1.348-0.302,2.699-0.751,3.747C-34.922,135.201-36.123,130.399-39.425,128.449z M37.23,317.01c-2.55,1.349-4.952-0.148-7.502-0.752c-0.899,0.752-0.899,2.248-1.349,3.153c-3.597,12.3-7.2,24.751-11.699,36.45c-5.396,11.7-9.153,23.698-17.998,33.005c-12.454,15.749-29.851,25.804-49.804,30.897c-4.348,0.45-8.099,1.802-12.448,2.402c-2.553,2.55-4.647,5.55-8.552,6.6c-10.649,3.6-22.949,3.901-32.099-1.949c-1.953-1.503-3-3.302-4.352-5.251c-5.402-0.751-9.898-1.5-15.149-2.399c-24-5.105-39.604-24.304-52.504-42.604c-7.2-11.85-12.75-24.901-16.498-38.698c-1.654-5.401-1.503-13.501,2.997-17.551c0.899-1.198,3.452-1.349,3.751-3.15c0.148-3.901-4.502-1.65-6.748-2.852c-11.253-2.698-15.155-14.696-17.252-24.751c-1.953-10.049-1.5-20.698-1.799-31.351c0.447-16.35,1.198-32.552,1.05-49.203l-0.453-2.547l-0.899,0.15c-1.647,1.951-4.197,3.747-6.898,4.647c-1.05,0.151-1.05-0.748-1.201-1.352c1.798-10.048-1.352-19.35-3.597-28.35c-0.45-2.251-0.302-5.102,1.05-6.752c3.449-3.451,8.552-0.301,12.75-0.301c6.449,1.651,13.35-3.298,18.302,1.651c6.6,5.997,6.15,15.896,7.2,24.752c1.349,22.2-1.201,44.4-1.953,66.449c0.151,12.451,1.802,23.854,6.603,34.055c0.601,0.598,1.05,1.647,1.95,1.647c3.751-1.497,7.2-3,11.102-0.748c4.801,3.452,7.348,9.753,5.7,16.201c-1.5,3.748-3.902,6.901-8.25,7.65c-0.299,2.697,0.899,4.952,1.349,7.649c7.2,21.151,17.551,40.503,35.85,53.4c7.797,5.402,16.651,9.603,27.301,10.2c1.349,0,3,0.15,3.902-0.748c-4.65-5.104-10.351-9.301-14.4-14.851c-13.501-13.651-22.349-31.354-31.948-48.451c-8.552-19.648-16.651-39.752-21.902-61.654c-3.301-14.249-6.6-28.054-7.649-43.354c-2.553-17.699-3.6-36.602-4.653-55.202c-0.598-11.7,0.45-23.553,0.598-35.402l0.452-0.451c10.351-0.152,21.601,0.148,31.803,0.451c11.999,0,21.453,0.151,33.901,0.451l100.654,0.6c8.552-0.151,18.151,0.451,26.851-0.151c1.198,0.151,1.047,1.503,1.198,2.399c0.302,13.05,1.053,25.95,0.302,39.151l0.151,1.199c-1.053,18-2.402,33.751-5.251,50.999c-0.447,5.253-2.553,9.902-3.15,15.152c-2.399,9.151-4.497,19.05-7.2,28.205c-3.298,11.25-7.647,22.349-11.998,32.397c-5.103,15.152-11.854,29.251-19.802,42.899c-8.703,14.102-18.148,26.556-29.703,38.403c-3.003,2.553-5.701,5.854-8.848,8.102c-0.154,0.151-0.154,0.601,0.148,0.752c0.601-0.151,1.05,0.601,1.651,0.15c8.099,0,15.749-2.703,22.801-5.703c11.851-4.804,21.148-13.35,28.801-23.849c5.1-7.354,9.3-15.9,12.448-24.754c4.201-12.897,7.203-26.7,12.3-39.154c2.707-7.194,8.404-13.196,16.953-13.495l0.601-0.899c0-10.803-1.5-21.754-3.15-32.253c-1.95-12.45-3.902-25.2-5.55-37.953c-0.751-8.396-0.151-17.85,2.399-25.199c1.65-6.601,4.949-12.602,8.703-18.001c1.953-2.101,4.65-4.202,8.25-3.151c4.952,2.1,10.501,3.599,16.051,4.495c4.352,1.651,5.996,5.553,5.852,10.351c-0.151,1.052-0.751,2.399-0.302,3.15c1.65,0.604,4.499,0.151,4.801,2.103c-3.748,5.549-2.547,14.7-10.049,16.651c-3.002,0.751-6.301-0.151-9.149,0.448c-1.05,3.751-0.151,8.101-0.151,11.998c2.1,14.104,4.65,28.355,6.603,42.152c1.346,10.052,2.094,20.254,0.151,30.457C46.826,304.105,44.581,312.809,37.23,317.01z M-181.478,229.558c0.151-0.152,0.597-0.301,0.902-0.152c1.947,7.5,2.399,15.451,4.05,23.255c2.849,15.149,5.996,30.298,11.102,44.547l-0.453,0.604l-6.147-0.452c-1.952-0.151-3.902,0.902-5.552-0.151c-2.249-3.147-2.701-7.2-3.902-10.797c-1.201-7.951-1.5-16.051-1.802-24.601C-183.579,250.705-181.629,240.504-181.478,229.558z M-157.177,319.563c0.751,0,1.352,0.748,1.5,1.496c5.251,14.102,12.75,27.153,21.151,39.755c3.896,7.053,8.7,12.602,13.199,18.746c3.751,4.354,7.801,8.549,11.404,13.055c-0.305,1.65-2.251,0.299-3.301,0.446c-7.952-1.346-13.948-5.55-20.399-10.196c-1.352-0.604-2.1-1.802-3.452-2.701c-3.748-3.458-7.351-7.505-10.499-11.253c-6.153-9.149-12.001-19.503-16.051-30.152c-0.899-3-2.698-6.597-1.799-9.904C-161.978,326.458-159.281,323.461-157.177,319.563z M14.727,235.106c3.455,15.753,5.251,32.247,6.002,49.203c0,1.645,0.147,3.598-0.899,4.799c-1.503,1.346-3.455,1.2-5.106,2.248c-7.351,4.2-10.649,12.306-13.35,20.399c-5.996,18.606-10.049,39.154-21.003,54.453c-8.395,13.351-21.899,22.799-37.199,26.852c-1.5-0.15-3.002,1.198-4.198,0l0.148-0.899c7.502-8.552,15.9-18.148,22.949-27.301c7.502-11.102,14.85-22.201,19.953-34.803c10.646-25.952,21.151-52.501,27.301-80.999c1.5-4.953,1.955-10.803,3.899-15.455C14.281,233.307,14.428,234.654,14.727,235.106z"/>
	<path d="M56.582,63.347l-9.904,6c2.251,1.799,4.502,3.451,6.753,5.102L56.582,63.347z"/>
	<path d="M-84.125,75.351c1.798,1.648,4.653,0.448,6.304-0.3c0.447-0.303,1.349-0.303,1.5,0.448c-2.251,3.454-7.951,2.552-11.853,2.104c-0.601,0.445-1.648,0.749-1.201,1.798c0.601,0.451,1.5,0.148,2.251,0c1.053,0.598,2.251,1.2,3.603,0.899c3.15-0.448,6.449-1.348,8.25-3.747c0.751-3.75-0.151-7.052-2.251-9.754c-2.701-1.198-5.248-3.747-8.703-2.55c-1.798-0.297-1.647,2.55-3.15,2.102c-0.447-0.602-0.299-1.351,0-1.801c-0.151-0.751-1.05-0.751-1.65-0.601c-1.799,2.1-0.598,6-0.148,8.549C-89.074,74.152-86.377,73.701-84.125,75.351z M-77.526,71.299c-0.601,1.35-2.399,2.399-3.902,3.001c-0.595,0-0.899-0.451-1.047-0.902c0.45-1.348,1.5-2.547,3-2.998C-78.428,70.099-77.824,70.55-77.526,71.299z M-80.226,68.148c-1.201,1.351-2.704,2.848-4.05,4.05c-0.302,0.148-1.352,0.3-1.352-0.148c-0.148-1.502,0.453-2.551,1.201-3.451C-83.075,68.148-81.123,66.2-80.226,68.148z M-84.877,65.597c0.601-0.145,0.751,0.152,1.05,0.453l-3.298,3.599c-0.601-0.152-0.899-0.453-0.751-1.052C-87.276,67.097-86.377,66.2-84.877,65.597z"/>
	<path d="M-94.775,100.7c-1.5-4.047-6.901-1.648-9.002-4.802c-0.299-0.748-0.299-1.8,0.45-2.1c1.799-0.448,2.698-1.351,4.198-2.25c2.399-3.3,6.6-5.702,8.25-9.899c0.902-1.951-1.198-2.552-1.95-3.751c-1.05-1.05-1.949-2.25-3.15-3.15c-0.45-0.448-1.503-0.448-1.949,0c-4.65,5.552-10.652,11.102-14.25,17.555c-0.601,1.648-0.305,3.897,0.446,5.25c3.899,5.997,10.499,8.396,15.3,13.949c2.849,2.55,4.798,6,8.549,6.899c0.899,0.304,1.952-0.448,2.251-1.05c1.798-2.849,1.05-6.901,0.299-10.052C-88.477,105.05-93.278,104.749-94.775,100.7z"/>
	<path d="M-35.822,121.401c-2.553-4.199-5.854-7.197-9.448-10.651c-8.851-10.05-18.302-16.951-26.405-27.598c-1.653-1.352-2.846-3.751-5.248-3.751c-0.601,0.451-1.651,0.451-1.503,1.651c10.354,11.399,21.006,22.649,31.954,34.352c3.899,3.449,7.65,7.951,11.703,11.102l0.449-0.3C-34.171,124.099-35.375,123.052-35.822,121.401z"/>
	<path d="M-57.875,118.251l6.449-1.497l0.302-0.451c-8.703-9.451-19.05-19.201-27.75-28.953c-1.949-0.748-3.899-0.899-5.549-1.65c-1.352,0.451-1.654,1.199-2.704,2.102c-1.352,0.751-3.901-0.451-4.348,1.647c-0.751,1.8-2.701,2.852-2.852,4.803l3.449,4.349c2.1,0.9,4.351,1.8,6.15,3.15c4.198,0.452,8.549,1.052,11.102,4.199c3,2.398,3.6,6.752,4.049,10.501l1.352,0.448C-64.776,115.854-60.726,116.751-57.875,118.251z M-74.822,101.002c-4.65-2.854-12.001-1.802-15.454-6.303c0.302-3.748,4.798-4.051,7.65-4.95c7.2,2.999,10.797,10.498,17.101,15c3.15,3.449,5.854,6.9,9.002,10.051c-2.101,0.601-3.6-0.599-5.55-1.052l-3.899-0.147C-66.577,107.6-69.725,103.25-74.822,101.002z"/>
	<path d="M-81.123,117.051c2.248-0.601,5.996,2.25,6.75-0.9c0.45-1.351,0-2.848-0.302-4.05c-0.299-1.65-1.648-3.449-3-4.35c-1.198-0.451-2.698-0.899-3.597,0c-0.604,2.847,0.148,5.853-0.302,8.552L-81.123,117.051z"/>
	<path d="M-65.223,120.652c-0.749,0.6-2.399,0-2.704,1.2c2.704,2.85,7.2,5.853,12.155,4.648c0-0.451-0.154-0.747-0.305-0.899C-58.023,122.604-61.472,120.801-65.223,120.652z"/>
	<path d="M-115.778,124.702c-2.849-1.65-5.402-5.252-9.452-3.599c-0.446,0.597-1.198,0.899-1.05,1.948c-0.299,1.351,0.601,2.55,1.5,3.449c3.002,1.052,6.15,0.152,8.999-0.747C-115.476,125.602-115.325,124.854-115.778,124.702z"/>
	<path d="M-112.175,121.7c2.547,2.551,4.949,5.552,8.999,6.002c1.201,0.147,2.547-0.152,3.15-1.052c-2.547-2.251-5.25-4.351-8.552-5.401C-109.924,121.252-111.128,120.652-112.175,121.7z"/>
	<path d="M-51.124,121.252c-0.751,0.3-1.798,0.149-1.798,1.199c1.798,1.951,3.748,4.65,7.2,4.199c0.748-0.451,1.201-1.199,0.899-2.251C-46.474,122.604-48.273,121.104-51.124,121.252z"/>
	<path d="M-95.828,121.549c-0.598,0.301-2.097-0.15-1.647,1.055c2.55,2.25,6.002,4.795,10.052,4.197c0.6-0.303,1.647-0.303,1.5-1.199C-88.927,123.8-91.473,120.801-95.828,121.549z"/>
	<path d="M-81.123,123.199c2.097,2.101,5.1,4.503,8.851,4.199c0.899-0.297,2.098-0.297,2.399-1.352c-2.553-2.698-6.449-4.047-10.499-3.747C-80.676,122.451-81.427,122.451-81.123,123.199z"/>
	<path d="M-82.022,396.96c10.501-8.097,19.648-17.4,27.452-27.901c13.347-16.8,24.298-36.602,32.854-57.303c3.6-9.75,8.103-18.896,10.797-28.955c3.147-10.649,6.6-21,8.851-32.246c6.898-33,11.401-68.405,8.999-104.255l-0.447-0.748c-22.5,0-44.854,0.149-67.952-0.151c-11.699,0.151-24.301-0.15-36.755,0.151l-0.148,0.3l2.251,1.352c6.15,4.501,9.451,11.247,12.3,17.85c2.251,0.298,4.499,0.901,6.452,1.801c3,1.502,4.798,4.801,5.7,8.251c1.349,5.25-1.349,11.103,0.154,16.5c-0.154,4.198,3.597,6.301,6.449,7.647c4.798,2.101,6.147,7.053,6.75,12.151c1.651,5.853,1.349,13.053,2.701,19.201c2.704,3.298,1.352,8.549,0,11.998c0.604,2.552,0.302,6.001,0.302,8.251c1.053-1.35,0.899-3.449,1.65-5.104c0.751-3.446,3.15-7.648,1.802-11.397c-0.45-1.201,0.748-1.503,0.302-2.702c0.748-0.601,0.899-1.503,0.6-2.552c0.899-1.5,0.749-3.449,1.5-4.949c0-1.65,0.299-4.05,1.198-5.549c0.899-0.304,1.798,0,2.396-0.604c1.201,0.604,1.955,1.502,2.402,2.852c-1.05,1.05-0.447,2.998-1.5,4.197c0.151,0.448,0.6,1.352,0,1.8c0.302,3.149-1.95,5.253-2.098,8.251c-1.201,0.751-1.804,1.8-2.704,2.999c-0.447,0.899,0.305,2.25-0.749,2.55l-2.712,9.764c-0.899,5.401-5.251,11.4-2.101,17.246c0.45,1.65,1.503,3.455,0.751,5.103c0.148,4.053-3.301,5.251-5.253,7.949c-4.047,0.751-2.547,5.552-4.349,8.103c-0.299,1.352-1.651,3.6,0.302,4.351c0.151,1.201-0.151,2.101-1.198,2.853c-1.201-1.054-0.305-3.147-0.899-4.503c0.148-3.748,2.249-6.898,1.95-10.8l2.399-2.248c-0.299-1.198-0.148-2.997-1.198-3.302c-0.899,1.198-0.45,3.452-1.648,4.203l-0.453-0.153l-0.598-6.751c0.302-2.697,1.651-4.499,3.151-6.597l-0.302-5.703c-0.601-3.153-2.101-5.7-1.349-9.149c-0.447-4.202,2.849-6.754,3.455-10.503c0.296-1.052,1.799-0.748,2.698-0.448c0.151-0.751-0.302-1.055-0.302-1.503c-1.497-1.199-3.748,0.152-4.952-0.3c-0.899-1.501,0.751-2.998,1.5-4.05c1.056-2.25-1.949-1.802-1.798-4.05c0.45-1.052,1.65-0.751,2.55-1.052c0.45-0.599-0.148-1.351-0.899-1.498c-5.1-6.602,1.799-18.451-5.1-23.553c-1.349,1.199,0.148,2.849,0,4.502c1.047,4.946-2.251,8.999-1.056,14.098c0.157,4.953-0.447,10.05,0.751,14.703c-0.447,2.099-0.595,4.65-1.95,6.15c-0.305,0.451-1.053,0.147-0.899-0.601c1.05-4.05-0.154-8.7-0.154-12.302c-0.598-1.351,0.748-2.702-0.447-3.449c-1.651,0.899-1.201,3.449-2.101,4.952h-0.751l-0.899-4.053h-0.45c-0.601,0.299-0.45,1.05-0.751,1.503c-1.053,3.9-0.45,9.15-3.751,11.697c-2.1,2.252-5.398,0-8.096,0.151c-5.854-1.199-3.751-8.698-5.553-13.198c-1.798-0.899-0.302,2.101-1.798,2.101c-1.352-0.9-2.101-2.399-2.101-4.048c-0.298-0.755-0.148-1.951,1.047-1.951c0.305-2.099-1.346-3.299-2.547-4.648c-2.55-3.602-0.899-8.252,0-12.302l-0.447-0.899c-1.352,0-1.654,1.799-2.251,2.547c-0.899,0.751-0.601,2.251-1.5,3.003c-0.902,0.747-1.352-0.755-2.399-0.304c0,3.15,1.647,5.102,2.698,7.8c0.302,2.251,0.751,4.649,0.302,7.052c-0.151,0.601-0.598,1.052-1.349,1.348c-1.952-0.899-3.449-2.547-5.851-2.099c-0.302,1.199-0.749,2.398-0.598,3.599c2.399,1.803,4.65,3.45,5.55,6.301c-0.302,2.702-0.302,6.304-3,7.2c0.151,0.899,0.899,2.099,1.651,2.702l3.15,0.147c0.751-0.296,1.503-0.448,1.95,0.453c-1.05,2.7-0.447,6.152,1.653,7.951c0.598,1.799-0.154,4.352,0.899,5.852c1.502-1.054,0.899-3.449,1.798-4.952c0.299-1.201,0.447-3.147,1.95-3.449c2.251,1.65,0.601,5.697,2.553,7.646c0.899-0.748,0.299-2.251,0.447-3.301c0.302-1.497-0.299-3.748,1.503-4.198l4.499,4.053c0.751,0.598,0.899,1.497,1.799,1.497c0.601-2.849-2.547-4.2-1.799-7.052c2.846,0,5.996,0.302,8.851,0.153c1.05,0.148,2.846-0.303,3.298,0.899c-0.751,1.952-1.201,4.647-2.249,6.603l0.305,0.299c1.645-0.449,2.544-2.396,3.145-3.898c0.601-0.899,1.349-2.252,2.704-2.399c1.352,2.095-0.151,4.496-0.899,6.449c0,0.597,0.598,0.751,1.198,0.597c1.955,0.752,1.65,3.455,1.955,5.402c-0.751,4.046,0.296,7.951,0.447,12.151c-0.154,1.051-0.899,1.497-1.953,1.651c-4.351-0.45-8.7,0.449-13.199,0.302c-4.949-0.598-10.2,0.147-15.151,0.147c-1.648,0.751-3.748,1.053-5.248,2.098c-0.598,1.955,1.503,2.553,1.05,4.352c0.601,1.056,1.65-0.595,2.55-0.746c3.298-0.449,7.952-1.798,10.8,0.447c2.097,0.902,3.298-1.5,5.401-0.601c1.497,2.852,2.846,6.149,4.05,9.3l0.447,0.154c0.601-3.751,1.802-7.502,4.798-9.907c1.354-0.748,3.455-0.748,4.656,0.302c1.947,1.802-0.302,4.357-0.603,6.153c0.449,3.898-3.899,5.55-2.098,9.451c0.751,0.896,1.198,2.095,2.704,2.095c1.198,0,1.645-0.752,1.95-1.651c1.05-0.898,0.302-2.849,1.346-3.75c1.056,0.603,0.902,1.955,0.902,3.153c-2.553,2.849-1.653,8.25-1.198,12.151l-1.953,7.65c1.05,4.949-0.148,10.199-0.302,15.45c0.302,4.05-1.949,8.103-0.148,11.851c0.302,4.2,3.597,7.505,7.2,8.851c2.248,1.802,5.704,1.949,7.2,4.65c0.598,1.346,0,2.399-1.05,3.449c-4.203,2.553-11.252,1.802-15.151-0.899c-2.704-1.799-7.351-0.595-10.049-1.949c-3-2.101-1.352-6.455-1.503-9.75c1.949-6.904,1.648-15.152-0.299-21.755l-0.302-10.199l0.302-2.846c0.899-2.707,0.447-5.704-0.45-8.404c0-6.896,0.899-12.75-0.751-19.347l-0.45-0.305c-1.953,6.898,0.302,15.454-0.598,22.799c0.299,2.399-1.201,3.901-0.453,6.15c-0.151,4.948,1.201,13.199-1.198,17.399c-0.899,4.952,0.447,8.703-1.053,13.348c-0.447,3.754,2.399,6.002,1.502,9.756c0.148,2.846,1.5,6.146-0.447,8.103c-3.301,1.798-6.449,3.896-10.203,5.398c-2.399,2.097-4.201,4.047-7.348,4.65c-1.801,0.299-3.002,1.047-4.952,1.197c-1.05-0.305-2.098-0.901-2.701-1.801c-1.349-1.353-0.148-3.449,0.147-4.805c1.053-1.645,3.302-2.846,3.003-4.798c-3.597-4.349-5.852-10.652-7.801-15.897c-3.748-12.602-6.452-25.357-8.703-38.402c0.148-0.604-0.751-0.752-0.299-1.201c-2.399-16.199-4.949-32.552-6.753-48.904c-0.751-8.396-0.899-17.25-1.647-25.498c-1.651-3.303-2.701-6.601-3.6-10.503c0.601-3.15,3.002-4.949,4.952-7.052c0.899-7.048,2.101-14.248,4.05-20.85c0.302-0.899,0.899-1.65,2.101-1.65c0.601,0.3,0.751,1.503,0.601,2.251c-1.654,8.554,1.5,16.502,1.949,24.902c1.798,1.352,1.798,3.602,3.449,4.801c1.5,0.3,3,0.751,4.65,0.9l0.148-1.947c0.751-6.752,2.701-13.354,3.15-20.403c0.748-5.7,7.2-6.148,10.951-9.299c4.049-4.05,0.6-11.25,2.852-16.499c0.299-2.398-0.45-5.099,1.05-6.901c0.751-1.647,2.251-2.25,2.698-4.05c-4.349-3.298-8.848-7.052-11.999-12.001c-0.751-2.099-2.997-4.199-1.5-6.602c1.952-0.599,3.75,1.652,5.703,2.101l0.148-0.9c-0.45-1.951-0.751-4.646,0.151-6.298l-1.503-0.302l-37.202-0.448c-9.75-0.451-19.353,0.15-29.404,0c-1.349,0-2.997-0.152-3.899,0.899c-0.298,16.048-0.151,32.999,1.201,48.902c0.751,8.848,0.751,17.852,1.799,26.55c0.151,6.901,1.798,12.904,2.704,19.503c4.201,30.901,13.199,58.35,24.6,85.201c7.798,16.198,16.498,31.803,27.6,45.452c8.401,10.049,17.853,18.752,28.351,27.301C-84.578,399.214-83.673,397.711-82.022,396.96z M-105.125,231.056c-1.352,0.297-2.399-0.451-3.301-1.65c-0.151-0.448,0.151-1.052,0.6-1.351c1.05,0,2.101,0.451,2.399,1.351C-105.427,229.856-104.974,230.304-105.125,231.056z M-98.674,231.208l0.899,0.448c1.949,2.847,3.6,5.85,4.049,9.451c-1.201,0.599-2.103,0.448-3.15-0.604C-98.827,238.405-99.727,234.206-98.674,231.208z M-70.923,248.606c-6.603,0.9-13.652,0.303-19.953-0.603c-0.45,0-0.899-0.597-1.349-0.145c-3.002-1.052-5.25,1.199-7.952,0.145c0.45-3.298,5.251-1.048,7.801-1.95c0.899-0.148,0.601-1.2,1.198-1.497c2.399-0.602,4.949,0.146,7.499,0c0.601,0.598-0.449,1.349,0.302,1.8c4.05,0.6,8.552-0.303,12.602,1.051l0.447,0.452L-70.923,248.606z M-67.622,298.557c-1.053,0.449-1.5-0.299-1.952-0.899c-0.302-0.899,0.147-1.497,0.899-1.799c0.749,0.154,1.5,0.154,1.805,0.899C-66.725,297.506-67.175,298.109-67.622,298.557z M-144.578,186.655c-0.751,0.147-0.751-0.901-0.899-1.5c0.151-3.901,0.751-7.801,1.352-11.55c-0.751-1.351-2.701-2.252-3.751-3.451c-2.1-2.099-4.5-3.749-6.301-5.55c-0.453-0.898,0.601-1.35,1.05-1.65c3.902-1.348,8.1-1.647,11.999-2.998c2.251-3.898,4.05-8.549,7.354-11.55c2.248,0.451,2.997,3.001,3.449,4.949c1.5,1.8,1.949,4.049,3.002,6.149c0.447,0.451,1.346,0.451,1.95,0.451c3.449,0.151,7.351,1.501,10.951,1.951c0.751,0.302,0.899,1.199,0.751,1.802c-2.704,2.999-4.798,5.997-8.099,8.549c-0.899,2.25,1.047,4.05,1.047,6.151l0.751,6.449c-0.302,0.447-0.601,1.199-1.201,0.9c-3.896-1.049-7.797-3.15-11.4-4.947C-136.627,182.453-140.23,185.452-144.578,186.655z"/>
	<path d="M-90.725,167.602c0.597,1.05,1.798,0.451,2.701,0.15c1.952-1.199-0.299-3.15-0.299-4.801c-2.399-5.401-5.402-10.202-10.351-13.498l-0.151,0.149C-97.475,156.202-95.976,163.103-90.725,167.602z"/>
	<path d="M-103.777,154.854c1.201,2.252,2.701,4.501,4.798,5.854l-1.95-4.803C-101.824,155.451-102.877,154.702-103.777,154.854z"/>
	<path d="M-295.932,162.203c-1.651-3.299-5.402-4.952-9.005-4.351c-2.698,1.052-4.05,3.899-4.05,6.301l11.7,4.802C-296.533,166.854-295.181,164.754-295.932,162.203z"/>
	<path d="M-75.721,175.701c-1.5-2.55-4.056-5.099-7.354-5.397c-2.701,0.747-5.7,1.647-7.8,3.299c-0.899,4.649-2.249,9.299-1.198,14.249c-1.201,4.501-1.201,10.799-6.753,11.55c0.302,1.2,1.952,0,3.15,0.299c1.503,1.052,1.654,3.899,1.952,5.851c0.899,2.099,1.95,4.801,3.597,6.451c1.503,1.649,3.304,2.549,5.402,3.15l3.6,0.152l3.902-1.803c1.497-1.497,2.248-3.299,3.298-4.946c0.594-2.552,0.446-5.252,0.751-7.503c-0.45-1.049,0.899-1.497,0.147-2.399c-1.497-0.748-2.399-1.948-3.298-3.15c-2.399-1.199-0.6-3.599-0.899-5.401c0.299-2.698,2.248-4.802,1.198-7.952C-74.677,180.354-74.677,177.652-75.721,175.701z M-88.175,181.254c1.352,0.3,3.298,1.199,4.502,0c0.298-0.301,0.745-0.899,0.298-1.351c-1.647-0.448-3.6-0.448-5.103-1.353c0-1.495-0.447-3.446,1.053-4.35c2.251-0.299,4.496,0.3,6.6-0.299c1.352,0.151,2.698,0.899,3.15,2.25c0.453,0.9,0.601,2.251,0.302,3.3c-1.198,1.351-3.301-0.755-3.899,1.047c-0.902,1.951,0.899,5.102-1.654,5.7c0.305,0.598,1.204,1.201,0.601,2.101c-0.299,0.15-1.198,0.15-1.198,0.751c1.198,0.749,1.05,2.399,1.346,3.75c-0.751,1.5-2.55,0.147-3.902,0.598c-0.151,2.099,3.452,1.953,2.553,4.651c-1.352,1.199-3.002-0.302-4.049-0.751l-1.201-1.2c0.601-2.7-0.302-6.151,0.751-8.698C-87.125,184.852-90.725,183.054-88.175,181.254z M-79.777,197.457l-0.594,0.297c-0.305-0.297-0.305-0.748,0.148-1.049C-79.777,196.705-79.623,197.006-79.777,197.457z M-76.925,199.556c0.899-0.304,1.198,0.598,1.198,1.199c-0.151,4.501-0.302,10.051-4.647,11.551c-1.956,0.451-3.603,0.152-5.254,0c-1.349-1.348-3.15-1.648-4.047-3.446c-0.751-1.804-1.502-3.751-0.902-6.003c-0.6-0.898-0.899-2.249-0.449-3.298c1.352,0,2.251,0.899,3.298,1.199c1.952,0.448,4.351,1.353,6.153,1.353L-76.925,199.556z M-76.774,183.956c-0.447,0.751-0.601,1.347-1.352,1.647c-1.05,0-0.749-1.052-1.05-1.799c0-1.052,1.05-1.052,1.802-1.352C-76.322,182.305-76.472,183.353-76.774,183.956z"/>
	<path d="M-217.63,178.103c-1.05,0.304-1.651,1.052-1.5,2.252c1.201,6.899,3.151,13.349,3.6,20.698c0.299,0.303,0.299-0.146,0.601-0.146c3.899-4.801,4.05-14.104,1.05-19.354C-214.631,180.051-215.678,178.406-217.63,178.103z"/>
	<path d="M-181.179,306.357c-5.1-7.05-7.2-15.451-8.851-24.449c-1.798-18.453,0.447-35.852,0.899-54.454c-0.601-12.75,1.5-27.301-1.95-40.051c-1.201-3.751-2.701-8.855-7.351-9c-3.298,0.899-7.2,0.899-11.102,1.052c0.6,3.298,1.801,6.899,2.251,10.348c1.647,10.351,1.5,21.303,1.201,31.351c-0.302,19.203-2.101,37.503-0.601,56.255c1.949,11.854,1.65,27.455,13.948,31.954c3.902,1.05,8.549,0.598,11.25-1.352C-181.179,307.558-180.727,306.957-181.179,306.357z M-194.228,222.653c-0.902,0.152-1.801,0.898-2.1,1.803c-0.299,1.951-1.648,3.746-3.751,4.047c-0.751,0.451-1.648,0-2.399-0.152c-1.95-1.499-2.399-4.047-1.95-6.6c0-1.052,0.751-1.951,1.799-2.1c0.751-0.152,1.5,0.148,1.201,1.048c-0.154,1.352-1.053,2.699-0.302,3.898c0.45,0.603,1.201,0.603,1.648,0.151c1.952-1.951,1.798-5.098,4.65-5.852c1.5-0.152,2.55,0.602,3.15,1.65c1.05,2.399,0.6,5.25-0.299,7.501c-1.053,0.754-2.101,0.15-3.304,0c-0.447-1.951,2.103-2.399,2.251-4.503C-193.929,223.253-193.779,222.653-194.228,222.653z M-197.231,212.905c-0.148,0.749,0.447,0.899,1.05,0.749c1.5,0.602,3.6-1.052,3.902,1.05c0.299,0.752-0.151,1.503-0.899,1.65c-3.6-0.45-7.2,0.149-10.499,0c-0.751-0.15-0.601-1.199-0.302-1.501l4.952-5.401c0.299-0.451-0.302-0.599-0.601-0.599c-1.503-0.149-5.251,1.047-4.352-1.956c0-0.899,0.601-1.05,1.201-1.05c3.899,0.602,6.75-0.748,10.351-0.301l0.447,0.755C-191.38,210.054-195.728,210.654-197.231,212.905z M-204.733,194.155c2.399-0.754,5.103,0,7.502-0.604c1.198-0.15,2.55-0.748,3.902-0.3c1.05,2.104,0.899,4.353,1.05,6.451c-0.299,0.901-0.899,1.35-1.799,1.649c-0.601,0-0.899-0.448-0.751-1.052c0.151-0.899,0.751-1.8,0.302-2.847c-0.446-0.301-1.5-0.301-1.949,0c-0.899,0.599,0.299,1.499-0.302,2.249c-0.899,0.301-1.949,0.752-2.698,0c-0.45-0.599,0-1.952-1.198-1.952c-0.905-0.146-1.653,0.302-1.952,1.05c-0.148,1.2,1.201,2.399,0,3.451c-1.198,0.3-1.651-0.748-2.101-1.348C-204.579,198.653-205.481,196.257-204.733,194.155z M-204.881,232.855l0.453-0.451c3.902-0.297,7.801,0,11.549-0.152l0.45,0.604l-0.148,6.9c-0.45,0.748-1.352,1.048-2.251,1.199c-0.449,0-0.6-0.602-0.6-0.899c0.298-1.199,1.798-3.003,0.6-4.053c-0.748-0.149-1.798-0.3-2.1,0.451c-0.299,0.899,0.45,2.099-0.751,2.399c-0.899-0.149-2.097,0.3-2.399-0.601c-0.299-0.899,0.45-2.099-0.601-2.399c-0.749,0.149-1.949-0.15-2.097,0.901c0,1.501,1.798,3.001,0.601,4.2c-1.053-0.301-2.104-0.602-2.704-1.503C-205.029,237.205-205.33,235.106-204.881,232.855z M-205.33,248.906c1.651-0.754,3.748,0,5.701-0.303c2.097,0.303,5.1-1.351,6.301,0.748h-0.151c-0.151,1.803,0.899,6.306-1.651,7.95c-1.349,0.751-3.449,0.751-4.798,0c-1.5-0.899-2.1-2.846-2.399-4.798c-0.899-0.899-2.698,0.153-3.15-1.201C-205.481,250.409-206.078,249.507-205.33,248.906z M-205.93,261.508c0-1.349,1.502-0.751,2.251-1.2c4.05,0.153,5.851-0.148,9.599,0.153c0.751,2.396,0.601,4.798,0.148,7.2c-0.453,0.598-1.352,0.745-2.1,0.45c-0.302-1.654,1.201-2.704,0.45-4.204c-0.751-0.446-1.799-0.15-2.251,0.151c-0.902,1.2,0.749,3.15-1.502,2.999c-0.899,0.151-2.399,0.151-1.802-1.349c-0.148-0.598,1.05-1.05,0.302-1.802c-0.601-0.299-1.949-0.446-2.251,0.305c-1.198,2.245,1.201,3.449,0.751,5.396c-1.05-0.15-2.248-0.302-2.698-1.05C-205.78,266.454-206.078,264.056-205.93,261.508z M-204.881,276.808c-0.446-1.952,1.802-1.503,3.003-1.804l6.15-0.598c0.751-0.302,0.597-1.5,0.299-1.953c-0.299-0.446-0.601-1.047-0.148-1.346c0.601-0.15,1.798-0.15,1.949,0.748c-0.148,2.847,1.201,5.701,0.302,8.401c-0.45,0.444-1.201,0.899-1.801,0.444c0-0.899,0.6-1.648,0.154-2.399c-2.852-0.899-6.153,0.452-9.153-0.147C-204.733,278.009-204.881,277.408-204.881,276.808z M-203.233,285.056l9.152-2.098c1.05-0.299,1.799,0.601,1.95,1.503c0.302,0.899-0.148,1.798-1.05,1.949c-3.298,0.147-6.75,0.899-9.901,0.751C-203.531,286.558-203.531,285.656-203.233,285.056z M-190.93,298.258c-0.748-0.601-0.601-1.651-0.899-2.55c-3.003,0-6,2.398-9.002,2.097c0-1.05-1.198-1.949-0.302-3.147c3.002-0.601,5.553-1.201,8.25-2.55c0.751-1.656-2.399-1.952-0.751-3.304c1.352,0,2.701,0,3.15,1.352C-190.779,292.705-186.578,296.758-190.93,298.258z"/>
	<path d="M42.478,186.354c0.751-1.503,1.805-2.55,2.101-4.202c-1.802-0.296-3.899-0.599-5.854-1.347c-2.547-0.304-4.197-3.153-7.046-1.954c-9.149,10.05-12.599,24.903-11.551,40.503c2.553,20.401,5.851,40.201,8.253,60.601c0.302,4.952,0.302,7.65,0.749,12.603c6.15,2.398,10.203,8.253,10.499,15.148l0.45,0.15c1.952-2.398,2.704-5.247,3.304-8.4c2.704-12.75,1.953-27.299-0.151-40.048C40.679,236.006,30.628,208.256,42.478,186.354z M23.28,213.956c0.899-1.65,2.849-2.399,4.201-4.201c-0.302-2.85-5.701-3.15-3.449-6.451c3.449,0.602,6.75,0.902,10.043,1.199c0.751,0.899,0.453,1.954,0.453,3.149c-1.352,1.055-2.553-0.75-4.201-0.448l-0.751,0.149c0.302,1.503,4.05,2.697,1.801,4.798c-0.446,0.602-1.65,0.602-1.5,1.503c1.201,0.751,3.15,0.451,4.354-0.152c1.198,0.152,1.047,1.803,0.899,2.853l-0.449,0.45c-3.449-0.301-7.354-1.649-10.951-0.45C22.827,215.904,23.132,214.856,23.28,213.956z M23.88,227.902c0-2.25-2.098-5.998,0.601-7.197h0.302c0.298,1.352-0.902,3.303,0.748,4.05c1.503-0.151,3.301-0.6,2.55-2.547c0.302-0.902,1.651-1.055,2.402-0.6c0.751,0.747-0.302,2.099,0.899,2.399c1.05,0.451,1.65-0.304,1.798-1.052c0.604-1.503-1.651-2.552-0.447-3.901c3.751,0.3,1.953,5.101,2.849,7.65c0,0.601-0.597,0.749-0.899,0.901c-3.154-0.752-6.603,0.448-10.049,0.747L23.88,227.902z M25.078,234.058c-0.597-0.898-0.299-1.95,0.305-2.702c0.595-0.448,1.198-1.35,2.098-0.748c0.148,1.199-0.751,2.702,0,3.898l0.748,0.301c2.553-0.601,5.553-0.749,8.1-1.349c1.053,0.447,0.601,2.1,1.053,3.15l-0.899,0.448c-2.553,0.303-5.248,0.303-7.801,0.754c-1.053,0.448-0.748,1.647-0.45,2.399c0.305,0.452,0.751,1.048,0.305,1.502c-1.053,0.301-1.204-0.451-1.953-0.751C25.678,238.856,25.829,236.154,25.078,234.058z M28.681,244.256c1.802,0.45-0.748,5.851,2.701,3.604c0.597-0.303,0.147-1.052,0.305-1.652c0.745-0.451,1.946-1.199,2.846-0.299c0.151,0.902,0.45,1.954,1.798,1.502c0.601-0.151,1.053-0.451,1.053-1.051c0.154-1.65-2.701-3.15-0.45-4.05c0.899-0.149,1.651,0.6,1.798,1.348l0.899,6.602c-0.899,1.352-2.698,0.153-4.047,0.601l-7.2,1.349c-1.053-1.65-0.899-4.201-1.053-6.3C27.326,245.005,27.933,244.408,28.681,244.256z M28.829,256.408c3.751,0.595,7.499-0.598,11.099-1.053c0.899,0.598,1.198,1.799,1.053,3.15c-0.154,0.446-0.45,1.05-1.198,0.902c-3.455,0-7.354-0.154-9.753,1.952l-1.349-0.153C28.681,259.704,27.326,257.459,28.829,256.408z M29.577,262.703c1.5,0.752,2.849,1.805,4.204,2.556l7.2,2.85c0.598,0.748,0.148,1.346-0.45,1.801c-3.301,1.347-5.999,3.449-9.152,5.55c-0.447,0.147-0.899-0.154-1.05-0.598c-0.151-1.053-0.601-3.153,0.45-3.751c1.949-0.15,3.6-1.053,4.647-2.553c-0.447-1.05-2.094-1.5-3.15-1.802c-1.047,0.302-3.298,0.899-3-1.198C29.279,264.659,28.681,263.159,29.577,262.703z M40.531,287.457c-2.399,1.805-5.549,1.953-8.253,0.45c-1.949-1.5-3.597-4.05-3-6.898c1.201-2.704,3-4.805,6.15-5.248c2.704-1.053,4.354,3.745,6.753,0.748c1.802,0.899,0.447,3.449,0.299,5.104C42.78,283.857,42.33,286.111,40.531,287.457z"/>
	<path d="M42.629,204.654c0.751,0.15,1.5,0.3,2.251-0.152c0.302-2.848,2.1-5.25,3.298-7.8c1.5-3.599,3.902-7.35,3.455-11.402c-0.151-0.448-0.751-0.596-1.349-0.596c-3.458,2.848-4.952,6.449-6.603,10.502C42.78,198.354,41.579,201.504,42.629,204.654z"/>
	<path d="M49.98,204.206c0,0.899,0.751,1.196,1.654,1.05c1.946-0.899,2.245-2.701,2.846-4.349c0-0.903,0.899-1.954,0-2.702C52.382,199.556,50.281,201.355,49.98,204.206z"/>
	<path d="M-84.877,203.006c-0.601-0.149-2.251-0.6-2.101,0.448c1.201,1.651,3,2.252,4.952,2.55c1.494-0.45,2.55-1.95,3.449-3.15v-0.746C-80.676,201.807-82.774,204.356-84.877,203.006z"/>
	<path d="M-129.577,234.206c2.097,0.9,2.399-1.351,4.05-2.099c3.301-1.503-0.601-4.205,0.298-6.9c0.45-2.398-1.949-2.852-3.449-3.901c-0.449-0.152-0.449-0.901,0-1.052c3.449,0.15,4.201,3.602,6,5.7c0.597,2.251,0.597,5.104,0.302,7.202c0.299,0.447,0.899,0.749,1.5,0.302c0.148-1.802,0.299-3.452-0.148-4.952c-0.751-3.15-2.251-6.153-4.502-8.102l0.751-0.599c-0.148-2.702-0.148-5.55-0.899-7.951l-0.601-0.151l-0.601,4.651c-0.299,1.049,0.151,1.801-0.148,3l-2.55,0.151c-1.799,1.502-3.603,3.45-3.902,5.853c0.151,1.8,0.299,3.45,1.198,4.945c0.749,1.503,2.701,0.904,3.6,1.951c-0.298,0.451-0.748,0.604-1.201,0.755C-130.329,233.604-129.725,233.905-129.577,234.206z M-130.779,222.653c1.352,0.303,2.704,0.303,3.603,1.352c0.299,0.899-0.601,1.199-1.204,1.199c-1.047-0.152-1.949-0.452-2.547-1.199C-131.077,223.552-131.225,223.104-130.779,222.653z M-131.678,225.804c1.201,0.451,3.15,0.147,4.502,0.901c0.299,0.149,0.447,0.901,0.148,1.049c-1.198,0.451-2.852,0.752-3.902-0.147C-131.376,227.003-132.426,226.558-131.678,225.804z M-130.329,230.304c-0.45-0.298-1.5-0.447-1.047-1.347c1.198-0.148,2.098,0.448,3.449,0.3c0.151,0.301,0.45,0.451,0.299,0.899C-128.38,230.757-129.577,230.456-130.329,230.304z"/>
	<path d="M-93.426,222.057c-0.446,0.148-0.594,0.597-0.446,1.047l3.298,5.25c1.198,3.15,1.5,7.5,5.401,8.401c0.598,0,0.899-0.45,0.751-1.052c-1.5-1.951-2.852-4.647-3-7.197C-88.175,225.655-91.027,223.404-93.426,222.057z"/>
	<path d="M-117.426,321.357c1.648,12.152,4.798,23.547,8.401,34.504l0.447,0.302c-3.298-25.652-6.301-52.058-9.898-77.557c-1.5-11.851-3.154-23.694-4.502-35.55h0.151l-0.447-4.35c-0.751-1.65-3.002-1.802-4.653-2.25c-0.601,0.148-0.453,0.899-0.601,1.351l0.899,11.251c0.899,6.297,0.601,12.595,2.399,18.597c2.701,2.849,1.953,7.352,2.852,11.105c0.6,5.848,2.251,11.998,1.198,17.698C-120.727,305.162-119.076,313.11-117.426,321.357z"/>
	<path d="M-104.377,249.507c-0.597-0.303-1.198-0.445-1.949-0.445c-2.547-0.152-2.852-3.005-4.05-4.653c-3.899-0.152-6.6-2.85-9.599-4.35l-0.302,0.6c0.45,6.301,1.651,12.15,2.1,18.599c3.298,18.903,5.251,39.604,8.253,59.107c1.799,14.998,3.147,29.848,5.399,44.55l0.6,0.751c1.5-0.901,1.5-2.404,2.701-3.6c1.952-2.251,1.65-5.999,3-8.7l-0.751-18.902c0-5.55-2.849-10.945-0.598-16.347c-1.349-4.201,0.598-8.851-1.349-12.599c-2.704-6.6-1.352-15.602-4.352-22.054c-0.299-3.298-0.299-7.649,0-11.099c-0.601-4.496-1.198-9.603-0.151-14.099C-105.125,254.007-104.377,251.758-104.377,249.507z"/>
	<path d="M-197.231,254.758c0.751-0.302,1.198-0.751,1.346-1.65c0.154-1.201-1.346-0.752-1.947-0.902c-1.05,0-2.1,0.15-1.801,1.352C-199.029,254.309-198.281,254.912-197.231,254.758z"/>
	<path d="M-77.677,266.756c-3.15,1.65-6.301,3.748-10.499,3.153c-0.601,0.296-0.148,0.746,0.151,1.198c2.399,1.647,6.002,0.447,8.401-0.305c0.598,0,0.447,0.604,0.299,0.899c-0.899,1.653-2.849,2.553-4.798,2.704c-0.45,0.449,0.299,1.053,0.751,1.352c1.5,0.446,2.846-0.151,4.049-0.902c0.899-1.053,2.402-2.248,1.651-4.053c-1.047-1.349,1.65-2.402,1.5-3.748L-77.677,266.756z"/>
	<path d="M39.177,282.807c-0.296,0-0.899-0.295-0.899-0.748c0-0.902,0.751-1.05,0.751-1.802c-1.349-1.053-3.452-0.598-5.103-0.449c-1.053,0.751-2.249,1.65-2.402,2.999c0.154,0.899,0.305,1.503,1.201,2.101c1.346,1.201,4.053,1.047,5.851,0.601c0.751-0.601,1.953-1.503,1.953-2.707C40.23,282.059,39.783,282.807,39.177,282.807z"/>
	<path d="M25.977,296.758c-3.449-1.503-7.348-0.151-10.046,1.952c-6.603,6.295-7.2,16.495-10.351,25.053c-3.899,12.451-6.605,26.1-12.602,37.199c-5.854,10.655-12.898,20.104-22.95,27.301c-2.55,1.802-5.401,4.352-8.703,5.251c-7.348,4.801-16.796,7.351-26.251,8.998c-2.248,0-0.751,2.405-1.198,3.604c-0.151,1.349-1.349,2.094-1.198,3.597c1.645,2.101,3,4.65,4.047,7.354l0.751,0.446c8.851-1.05,17.252-3.301,25.056-6.753c11.999-5.101,21.896-13.052,30.449-21.601c1.801-1.802,3.15-3.899,5.1-5.704c8.549-13.501,15.602-28.649,20.107-44.849c2.698-5.7,3.597-12.303,5.996-18c0.601-4.952,2.248-9.002,3.449-13.354c0.905-2.248,2.402-4.493,3-6.898C29.728,298.408,27.782,297.811,25.977,296.758z M-56.975,414.365c-1.05,0-1.198-0.748-1.5-1.503c0.601-1.198,2.251-0.296,3.15-1.346c0.305-1.802-2.251-1.503-3-2.55c-1.198-0.151-1.952-0.902-2.55-1.653c-0.302-0.899,0-1.95,0.45-2.551c1.198-1.349,2.997-1.499,4.496-2.097c1.053,0.147,1.5,0.748,1.5,1.65c-0.751,1.198-2.55-0.449-3.298,0.899c0,2.098,3.002,1.503,4.352,2.704c1.05,0.748,1.949,1.952,1.801,3.298C-52.325,413.466-55.177,413.466-56.975,414.365z M-35.674,408.062c-0.899,0.147-1.053-0.751-1.201-1.349c-0.899-2.55-1.5-5.251-3.298-7.053c-1.198-0.299-1.651,1.054-1.798,2.101l-0.751,8.552c-0.302,0.595-0.902,1.051-1.5,0.595c-2.402-2.55-4.499-5.097-6.901-7.795c0-1.352,1.651-1.198,2.402-1.653c1.198,0,0.745,1.503,1.349,1.952c1.047,0.601,1.497,2.55,3.15,2.251c0.899-2.097-0.751-4.203,0-6.149c2.997-1.651,5.848-2.701,9.002-4.201c1.497-0.15,2.701,0.302,3.147,1.5c-0.899,2.997,3,2.701,3.15,5.103C-29.074,405.662-33.275,406.263-35.674,408.062z M-14.822,393.664c-0.45,0.595-1.198,0.446-1.503,0c-1.949-2.405-4.798-4.499-6.449-6.754c-0.151-0.904,1.053-2.703,2.402-2.1c1.497,1.952,3.446,4.053,5.55,4.801c1.65-0.305,1.047-2.849,3-2.701C-9.272,390.212-13.618,391.413-14.822,393.664z M-7.325,386.313l-0.595,0.15c-2.251-2.251-4.65-4.499-7.351-6.153c-1.053-0.594-0.154-1.647,0.151-2.396c1.346-1.65,2.402,0.299,3.597,0.748l5.7,4.952C-5.518,384.662-6.574,385.713-7.325,386.313z M-2.072,379.409c-0.45,0.449-0.899-0.148-1.352-0.148c-2.249-2.399-5.396-3.748-7.795-5.852c0.299-2.999,2.399-5.25,4.798-6.454c1.05-0.148,1.802,0.305,2.55,1.053c-0.148,3.302,4.197,0.302,4.653,3C2.578,374.314-0.72,377.01-2.072,379.409z M7.527,362.461c-1.198,1.802-2.097,3.902-3.748,5.701c-2.704-1.497-5.398-3.15-8.398-4.349c-0.899-0.305-0.601-1.65-0.45-2.254c1.5-1.646,1.648-5.396,4.798-4.349l0.151,0.449c-0.746,1.198-3.301,1.497-2.249,3.452c0.601,0.146,2.249,1.198,2.55-0.452c-0.148-0.746,0.301-1.497,0.751-1.497c0.751,0.299,1.799,0.446,2.399,1.198c0,1.198-1.5,1.949-0.899,2.849c0.598,0.302,1.349,0.751,1.949,0.302c0.751-1.051,0.604-2.698,1.201-3.745c0.899-0.154,1.651,0.595,1.949,1.349v1.346H7.527z M9.779,352.561c-0.45,0-0.899,0.302-1.05,0.601c0.447,0.899,2.097,0.598,1.949,2.098c-0.446,0.901-0.446,2.1-1.5,2.401c-0.151,0.148-0.601-0.302-0.899-0.449c-2.251-1.35-5.401-2.553-7.955-3.452c-0.45-1.802,0.751-3.452,1.204-5.248c0.598-1.198,1.497-2.251,2.846-2.553c1.201,0,2.402,0.302,3,1.201c0.751,0.745,0,2.999,1.802,2.7c1.201-0.156,2.704-0.902,3.902-0.446C12.926,351.362,11.577,351.957,9.779,352.561z M14.727,342.662c-0.902,0.899-2.547-0.302-3.597-0.748l-4.502-1.503c-0.746,0.752-0.598,1.802-0.899,2.849c-0.899,0.302-1.198-0.598-1.497-1.053l-0.302-0.899l2.402-7.046c0.447-0.302,1.047-0.604,1.647-0.604c0.598,0,0.902,0.452,1.05,0.898c-0.45,0.604-1.798,1.201-1.349,2.255c2.101,1.346,4.502,2.396,7.049,2.849C15.627,340.408,15.18,341.914,14.727,342.662z M17.878,330.058c-0.751-0.305-1.349,0.447-1.5,1.05c0,1.054-0.151,1.201,0.151,2.101c1.653,0.45,1.05,2.55,0.45,3.751c-0.601,0.598-1.201,0-1.651-0.601l-7.351-7.2c-0.154-0.305-0.154-0.748,0-1.198c3.304-1.053,7.052-0.597,10.351-1.502c0.751-0.299,1.346,0.153,1.346,0.905C19.227,328.413,19.529,330.209,17.878,330.058z M21.179,321.958l-0.899,0.302c-2.251-0.899-4.653-1.949-7.354-2.251c-1.497,0.751-0.148,2.707-0.899,3.905c-0.899,0.295-1.349-0.45-1.952-0.905l-0.151-1.344l2.402-8.403c0.45-0.598,2.248-0.749,2.399,0.15c-0.447,0.899-1.801,1.799-1.352,3.15c2.402,1.352,5.401,1.65,8.105,2.251C22.377,319.707,21.629,320.914,21.179,321.958z M24.481,312.058c-0.302,0.899-1.349,0.751-2.101,0.449c-2.849-0.751-5.851-2.095-8.7-2.55c-1.047-1.65,0.6-3.898,0.6-5.852c0.598-1.053,1.651-1.801,2.846-1.346c-0.148,1.799-2.698,2.997-0.899,4.493c1.053-0.147,1.502,0.601,1.955-0.597c0-0.752,0.749-1.201,1.494-1.054c0.751,0.302,1.804,0.302,1.502,1.352c-0.15,0.595-0.6,1.648,0.45,1.95c1.05,0,1.95,0,2.098-1.198c0.305-1.05-0.749-1.949,0.151-2.849c0.751-0.151,1.198,0.601,1.65,0.899C25.977,308.011,24.779,309.96,24.481,312.058z"/>
	<path d="M-76.627,308.313c-0.446-0.755-0.147-1.955-0.594-2.704c-0.453-0.446-1.204,0-1.654,0.302c-0.302,3.751,0.749,7.499,2.101,10.798c0.597,0.6,1.349-0.151,2.097-0.299c-0.299-1.956-1.648-4.352-1.648-6.452c1.198-0.452,1.95-0.899,2.994-1.65c0.45-1.198,1.956-2.849,0.751-3.899C-74.375,305.31-75.275,307.259-76.627,308.313z"/>
	<path d="M32.429,306.81c-0.45,1.503-2.097,3-0.749,4.65c0.749,0.449,1.802,0.15,2.396-0.45c0-1.349,0.905-2.846,0.604-3.898C34.379,305.91,32.876,305.31,32.429,306.81z"/>
	<path d="M-181.931,315.205c0.151,0.905,0.899,1.656,1.801,1.503c4.5-1.051,7.351,1.798,10.951,3.301c1.5,0.148,2.698-0.751,3.15-2.098c0.899-2.999,0.751-6.901-1.198-9.303l-2.101-1.799c-4.949-1.805-5.103,3.452-8.25,5.105C-178.778,313.259-182.227,312.658-181.931,315.205z"/>
	<path d="M-89.675,307.709c-1.05-0.748-1.65,0.449-2.701,0.302c-1.5-0.151-2.251-0.899-3.751-0.752c-0.899,3.003-0.751,7.05,0,9.757c0.601,1.496,2.399,1.349,3.597,1.349c0.751-0.905,2.553-1.201,2.553-2.402c-1.352-0.604-2.553,0.296-3.751,0.598c-0.151-1.647-2.55-3.745-0.151-4.949C-95.828,307.558-89.826,310.708-89.675,307.709z"/>
	<path d="M-105.877,401.462c-3.751-0.146-8.103-1.05-11.7-2.396c-4.949-1.653-9.901-3.002-13.649-6.304c-13.649-7.348-23.251-21.003-31.2-34.199c-3.754-6.901-6.301-14.4-8.854-22.053c-1.346-4.05-2.098-8.55-3.449-12.596c-0.601-0.905-1.648-1.956-3-2.249c-3.449-0.452-7.052,0.296-9.6,2.698c-2.097,1.5-1.65,4.801-1.801,7.502c2.103,12.903,6.75,24.597,12.9,35.249c8.1,16.058,20.553,30.156,35.102,39.906c7.354,5.1,16.651,7.502,25.804,9.152c2.1,0.147,4.499,1.198,6.301-0.157c0.598-2.245,1.349-4.798,3.15-6.298c1.503-1.05,0.302-2.846,0.302-4.354C-106.028,404.015-104.974,402.666-105.877,401.462z M-185.83,339.959c-0.148-1.051-1.198-2.248-0.148-3.147c3.452-0.899,6.449-2.255,9.75-3.452c2.399,0.902,1.953,4.352,2.704,6.6c0,1.201-0.305,2.55-1.502,3.301c-1.053,0.902-2.251,0.902-3.751,0.604c-1.651-0.899-2.104-2.999-3.449-4.354C-183.579,339.361-184.78,341.462-185.83,339.959z M-182.079,350.313c-1.201-3.302,3.446-2.402,4.949-3.601c1.799-0.601,4.502-3.898,5.701-0.446c0.148,2.402-2.849,1.497-4.05,2.697c-1.198,1.201-4.502,0.749-3.6,3.302c0.302,1.053,2.097,1.201,1.198,2.248C-180.727,355.11-180.881,351.81-182.079,350.313z M-175.778,363.509c0.299-1.346,2.097-1.799,1.5-3.449c-0.302-0.752-0.453-1.5-1.352-1.802c-1.05,0.148-3.002,1.05-3.15-0.751c-0.302-0.899,0.45-1.497,1.05-1.497c3.6,0,7.351-1.201,11.099-0.751l0.302,0.446c-2.1,3.6-5.103,6.6-7.502,10.351C-175.027,365.763-175.331,364.559-175.778,363.509z M-170.678,372.063c-1.198-1.05-1.198-3.15-0.751-4.65c0.899-2.7,3-4.203,5.851-4.649c2.097,0,3.899,1.05,4.801,2.852c0.446,0.898,1.198,2.251,0.446,3.298c-0.6,0.148-0.446,0.751-1.05,0.45c-0.749-1.054-0.302-3.154-1.953-3.601c-1.497-0.446-2.849,0.151-3.899,0.902c-0.902,0.748-2.097,1.799-1.801,3.147c-0.299,1.952,2.55,2.399,2.251,4.05C-168.581,374.161-169.631,373.11-170.678,372.063z M-166.327,378.513l0.148-0.749c3.153-1.65,5.701-4.2,8.398-6.146c1.201,0.147,1.502,1.198,1.801,2.245l-0.302,0.899c-3.153,1.801-5.248,4.203-8.25,5.854C-165.732,380.462-166.028,379.56-166.327,378.513z M-161.83,384.813c0.899-1.802,2.852-2.553,4.354-3.899l3.902-3.6c2.097,0.601,2.55,2.852,3.748,4.053c1.349,2.094,0.305,5.248-0.899,6.896c-1.198,1.05-2.399,1.949-4.047,2.101C-158.227,389.614-160.18,387.36-161.83,384.813z M-146.826,400.56c-0.899-0.443-1.95-1.799-1.198-2.997c0.598-0.748,0.45-1.499-0.151-2.248c-0.598-0.601-1.65-1.801-2.55-1.647c-0.899-0.449-3.298,2.248-3.748-0.302c0-1.053,1.349-0.751,2.097-1.053c3.301-0.598,5.701-2.248,8.999-3.305c0.604,0,0.902,0.453,1.053,1.057c-0.751,3.744-2.704,6.448-3.153,10.348C-145.78,400.861-146.377,400.714-146.826,400.56z M-132.876,408.511c-0.899,0.453-1.802-0.302-2.399-0.594c-0.449-2.402,2.098-3.302,1.95-5.405c-1.503-0.598-3.301,1.503-4.352,0.154c-0.601-0.598-0.302-2.701-1.5-2.248c-1.201,0.898-1.053,3.147-2.399,3.748c-0.749-0.151-1.5-0.601-1.801-1.5c0.453-1.201,1.952-2.402,2.704-3.598c1.05-1.804,1.65-3.901,3.15-5.253c3,0.302,0.899,4.502,2.698,6.002c2.251-0.151,4.801-2.251,6.603-0.601C-128.826,402.666-131.826,405.363-132.876,408.511z"/>
	<path d="M12.03,330.058c0.447,0.601,1.053,1.198,1.799,1.198c0.452-0.446,0.751-0.899,0.452-1.65C13.677,329.31,12.476,329.463,12.03,330.058z"/>
	<path d="M-177.429,340.261c0.751-0.302,1.198-0.749,1.198-1.648c0.151-1.65-1.949-0.901-2.698-0.6c-0.751,0.147-1.053,0.748-0.601,1.2C-179.079,339.811-178.482,340.408-177.429,340.261z"/>
	<path d="M-74.822,350.313c0.447-0.154,0.595-0.752,0.751-1.353c-0.604-1.647-0.604-4.798-3.455-3.298c-1.5,0.299-0.749,2.095-0.902,3.298C-77.824,350.313-76.026,349.413-74.822,350.313z"/>
	<path d="M4.377,349.561c-0.447,0.302-0.899,0.598-1.05,1.201c0,0.601,0.449,1.054,1.05,1.054c0.45,0.147,1.053-0.154,1.053-0.604C5.581,350.313,5.276,349.561,4.377,349.561z"/>
	<path d="M-78.576,356.613c2.701,0.299,4.952,0.899,7.351,1.799c1.349-0.749,3.15-0.749,3.6-2.551l-2.704-4.052c-1.802-0.598-2.846,1.65-4.497,1.798c-1.352,0.154-1.805-1.198-2.553-1.798C-77.824,353.161-79.177,354.963-78.576,356.613z M-71.973,354.661c0.749-0.598,1.953-0.151,2.399,0.604c0.147,1.194-1.349,0.898-1.95,0.597C-71.675,355.557-72.275,355.265-71.973,354.661z"/>
	<path d="M-173.08,357.959c0.151,0.305,0.302,0.902,0.899,1.051c0.45-0.303,0.899-0.598,1.053-1.198C-171.429,357.211-172.48,357.663-173.08,357.959z"/>
	<path d="M-100.626,368.011c0.899-0.145,1.201-1.201,1.802-1.949c1.05-2.553,3.452-0.446,4.952,0.147c1.65,0,3.15-0.446,3.901-1.949c0.751-1.5-0.154-3.002-0.751-4.053l-0.899-0.899c-1.352-0.446-2.704-1.349-4.053-0.901c-0.746,3.153-3.449,5.703-5.398,8.104C-101.377,367.108-101.676,368.011-100.626,368.011z M-94.476,361.713c1.047-0.598,2.852-0.598,3.449,0.598c0.302,1.349-0.899,1.802-1.5,2.248c-1.198,0.45-1.647-0.598-2.097-1.349C-94.624,362.311-94.926,362.311-94.476,361.713z"/>
	<path d="M-7.621,371.46c-0.751,0.749,0.45,1.198,1.047,1.349c0.45-0.748,0.902-1.05,0.902-1.801C-6.125,369.511-7.169,370.859-7.621,371.46z"/>
	<path d="M-2.371,372.963c-0.899,0-1.349,0.748-1.647,1.5c0.299,0.598,0.899,1.053,1.647,1.201c0.601-0.302,0.751-0.905,0.899-1.35C-1.474,373.563-1.77,373.11-2.371,372.963z"/>
	<path d="M-152.678,380.914c-1.952,1.198-3.298,3.15-5.401,4.5c-0.601,0.598-0.45,1.645,0.299,1.949c0.902,0.598,2.399,0.598,3.301,0c1.65-0.601,2.248-2.098,2.849-3.601C-151.48,382.71-151.178,380.914-152.678,380.914z"/>
	<polygon points="-260.683,393.963 -254.983,400.261 -249.883,389.91 	"/>
	<path d="M-147.729,393.061c0.299,0.45,0.751,1.05,1.352,0.902c0.147-0.598,0.899-1.053,0.446-1.65L-147.729,393.061z"/>
	<path d="M-35.972,397.563c-0.302,0.305-1.05,0.305-1.05,0.902c0.148,0.45,0.45,1.048,0.899,1.048c0.45-0.148,0.902-0.746,1.053-1.198C-34.922,397.711-35.523,397.563-35.972,397.563z"/>
	<path d="M-98.674,407.917c1.349-1.051,0.151-3.452,0.299-5.251c-0.148-0.752,0.148-2.101-1.05-1.952c-1.65,0.449-1.65,1.952-2.1,3.301C-101.525,406.115-100.177,406.866-98.674,407.917z"/>
	<path d="M-35.221,401.316c-0.45,1.35,0.597,2.249,0.902,3.299c0.447,0.595,1.195,0.147,1.645-0.15c0.45-0.752,1.201-1.503,0.601-2.551C-32.375,400.412-34.476,400.412-35.221,401.316z"/>
	<path d="M-94.177,403.115c-0.598,1.952-0.299,4.497,0.449,6.301c4.65,0.899,9.898,1.048,14.699,0.45c1.5-1.355,0.899-3.905,1.349-5.854l-0.598-0.446l-4.352,3.147C-87.125,411.064-90.128,404.465-94.177,403.115z"/>
	<path d="M-73.923,403.864c-0.148,1.65-0.598,3.6-0.148,5.103c0.447,0.598,0.743-0.151,1.195-0.151c1.201-0.751,2.704-1.65,2.254-3.6C-71.074,404.163-72.725,402.813-73.923,403.864z"/>
	<path d="M-70.624,412.859c-9.602,3.003-21.151,2.402-30.3-0.443l-0.899,0.299c-1.802,1.802-2.251,5.549-1.349,8.1c2.399,3.901,7.65,4.954,11.999,6.002c8.552,0.443,18.749,0.598,22.955-7.053C-67.323,416.762-68.675,414.664-70.624,412.859z"/>
	<path d="M65.581,413.315c-0.601,0.15-1.198,0.302-1.799,0.899c-0.902,1.05-1.352,2.401-1.056,3.898c2.852,3.153,5.553,7.053,9.301,8.851c1.201,0.299,2.704,0.299,3.449-1.047c0.905-1.201,0.453-3-0.299-4.207C72.781,418.56,69.781,413.913,65.581,413.315z"/>
	<path d="M41.283,422.917c-1.657-2.254-5.251-3.002-7.502-1.053c-1.053,1.053-2.101,2.248-1.953,4.053c0,1.497,1.047,2.698,2.246,3.449c3.002,1.349,6.301,0,9.004-0.601C43.531,426.512,42.629,424.565,41.283,422.917z"/>
	<path d="M41.434,436.412l-0.305,1.35c-0.447,3.455,1.053,6.753,4.053,8.404c1.497,0.748,3.6,0.446,4.949-0.151c1.651-0.751,3.301-2.402,3.449-4.206c0.453-1.646,0-3.296-1.047-4.497C49.678,433.868,44.732,435.667,41.434,436.412z"/>
	<path d="M-107.374,459.812c-1.804-1.195-4.049-1.799-6.153-1.349l-1.798,12.602c1.65,0.302,3.449,0.449,5.248,0.302c1.349-0.446,3.002-1.349,3.6-2.852C-105.575,465.816-104.974,461.918-107.374,459.812z"/>
</g>
</svg>
